<svg width="100" height="70" viewBox="0 0 100 70" fill="none" xmlns="http://www.w3.org/2000/svg">
<rect width="100" height="70" fill="white"/>
<rect width="100" height="70" fill="#FF8080"/>
<circle cx="47" cy="7" r="7" fill="#F49393"/>
<rect y="14" width="32" height="14" fill="#F49393"/>
<rect y="42" width="20" height="14" fill="#F49393"/>
<rect y="56" width="68" height="14" fill="#F49393"/>
<circle cx="31" cy="21" r="7" fill="#FF8080"/>
<circle cx="31" cy="35" r="7" fill="#F49393"/>
<circle cx="20" cy="49" r="7" fill="#FF8080"/>
<circle cx="68" cy="63" r="7" fill="#F49393"/>
<rect width="37" height="14" fill="#C4C4C4"/>
<rect width="47" height="14" fill="#F49393"/>
<rect y="28" width="31" height="14" fill="#F49393"/>
<path fill-rule="evenodd" clip-rule="evenodd" d="M75.5472 19.439L48.4977 37.4698C48.5119 37.4894 48.5148 37.5155 48.5381 37.5255C48.5869 37.5463 48.6434 37.5441 48.6834 37.5096L75.5229 19.6218C75.5796 19.5864 75.6054 19.5158 75.5795 19.4549C75.5743 19.4427 75.5553 19.4488 75.5472 19.439Z" fill="black"/>
<path fill-rule="evenodd" clip-rule="evenodd" d="M48.6188 37.3507L23.0957 33.3694C23.0921 33.3815 23.0715 33.38 23.0715 33.3932C23.0715 33.4641 23.1209 33.5229 23.1927 33.5283L48.4573 37.4699C48.5331 37.4808 48.6077 37.4253 48.6188 37.3507Z" fill="black"/>
<path fill-rule="evenodd" clip-rule="evenodd" d="M74.7638 26.1459L40.4369 25.4704L23.5561 35.7295L48.4411 37.3824L74.7638 26.1459Z" fill="#A4A4A4" fill-opacity="0.802326"/>
<path fill-rule="evenodd" clip-rule="evenodd" d="M48.6188 37.3506C48.63 37.276 48.5735 37.2106 48.4977 37.1996L23.233 33.2581C23.2197 33.2562 23.206 33.2562 23.1927 33.2581C23.1343 33.2625 23.1115 33.3166 23.0957 33.3694L48.6188 37.3506Z" fill="black"/>
<path fill-rule="evenodd" clip-rule="evenodd" d="M75.5472 19.439C75.5147 19.3997 75.4703 19.3634 75.418 19.3754C75.4004 19.3801 75.3839 19.3882 75.3696 19.3993L48.53 37.287C48.4826 37.3109 48.4556 37.3538 48.4573 37.4062C48.4582 37.4336 48.4821 37.4484 48.4977 37.4698L75.5472 19.439Z" fill="black"/>
<path fill-rule="evenodd" clip-rule="evenodd" d="M43.3042 49.04L56.308 19.0734L39.6615 11.4844L26.2215 42.3808L43.3042 49.04Z" fill="#00AC51" fill-opacity="0.802326"/>
<path fill-rule="evenodd" clip-rule="evenodd" d="M48.4412 37.3825L23.5562 35.7296L8 45.178L22.8454 48.301L48.4412 37.3825Z" fill="#A4A4A4" fill-opacity="0.802326"/>
<path fill-rule="evenodd" clip-rule="evenodd" d="M48.5865 37.4937V9.33092C48.5804 9.33069 48.5766 9.32234 48.5704 9.32297C48.4997 9.32866 48.4462 9.38832 48.4492 9.45806V37.3665C48.4492 37.4389 48.5129 37.4937 48.5865 37.4937Z" fill="black"/>
<path fill-rule="evenodd" clip-rule="evenodd" d="M48.5865 37.2473C48.5752 37.2469 48.5655 37.2368 48.5542 37.2394C48.4931 37.252 48.4492 37.305 48.4492 37.3665V60.8169C48.4492 60.8893 48.5129 60.9441 48.5865 60.9441V37.2473Z" fill="black"/>
<path d="M72.0739 9.43015L38.024 21.5857V60.6986L72.0739 48.543V9.43015Z" fill="#FDFF23" fill-opacity="0.802326"/>
<path fill-rule="evenodd" clip-rule="evenodd" d="M74.7638 26.1459L48.4412 37.3824L79.6019 39.4485L92 26.4876L74.7638 26.1459Z" fill="#A4A4A4" fill-opacity="0.802326"/>
<path fill-rule="evenodd" clip-rule="evenodd" d="M48.5866 37.2473V60.9441C48.6602 60.9441 48.7158 60.8893 48.7158 60.8169V37.3665C48.716 37.3269 48.6988 37.288 48.6674 37.2632C48.6449 37.2456 48.6147 37.2483 48.5866 37.2473Z" fill="black"/>
<path fill-rule="evenodd" clip-rule="evenodd" d="M48.5866 37.4933C48.6602 37.4933 48.7158 37.4386 48.7158 37.3662V9.45772C48.7175 9.41998 48.7033 9.38036 48.6754 9.35442C48.652 9.33268 48.6183 9.33177 48.5866 9.33058V37.4933Z" fill="black"/>
<path fill-rule="evenodd" clip-rule="evenodd" d="M43.3042 49.04L62.4061 56.4939L74.8123 27.5048L56.308 19.0734L43.3042 49.04Z" fill="#00AC51" fill-opacity="0.802326"/>
<path d="M59.3507 12.0356L37.8246 61.6113" stroke="#0000FF" stroke-linecap="round" stroke-linejoin="round"/>
<path fill-rule="evenodd" clip-rule="evenodd" d="M26.2215 52.3141C26.2357 52.3336 26.2386 52.3597 26.2619 52.3697C26.3108 52.3906 26.3672 52.3884 26.4073 52.3538L48.6834 37.5095C48.7401 37.4741 48.7659 37.4036 48.74 37.3426C48.7348 37.3305 48.7158 37.3366 48.7077 37.3267L26.2215 52.3141Z" fill="black"/>
<path fill-rule="evenodd" clip-rule="evenodd" d="M78.5761 42.0312L48.3523 37.3109C48.3497 37.3213 48.3362 37.3236 48.3362 37.3348C48.3362 37.4056 48.3855 37.4645 48.4573 37.4699L78.4226 42.1504C78.4985 42.1635 78.5708 42.1137 78.5842 42.0391C78.5849 42.0349 78.5757 42.0354 78.5761 42.0312Z" fill="black"/>
<path fill-rule="evenodd" clip-rule="evenodd" d="M48.4412 37.3824L22.8454 48.301L63.0523 56.7483L79.6019 39.4485L48.4412 37.3824Z" fill="#A4A4A4" fill-opacity="0.802326"/>
<path fill-rule="evenodd" clip-rule="evenodd" d="M78.5763 42.0312C78.5821 41.9614 78.5428 41.8926 78.4713 41.8802L48.4977 37.1996C48.4843 37.1977 48.4707 37.1977 48.4573 37.1996C48.3968 37.2042 48.3662 37.2553 48.3523 37.3109L78.5763 42.0312Z" fill="black"/>
<path fill-rule="evenodd" clip-rule="evenodd" d="M26.2215 52.3141L48.7078 37.3268C48.6753 37.2875 48.6308 37.2513 48.5785 37.2633C48.5609 37.268 48.5444 37.2761 48.5301 37.2871L26.2538 52.1313C26.2064 52.1552 26.1795 52.1981 26.1811 52.2505C26.182 52.2779 26.2059 52.2927 26.2215 52.3141Z" fill="black"/>
</svg>
