<svg width="100" height="70" viewBox="0 0 100 70" fill="none" xmlns="http://www.w3.org/2000/svg">
<rect width="100" height="70" fill="white"/>
<rect width="100" height="70" fill="#5264A5"/>
<circle cx="36" cy="7" r="7" fill="#283870"/>
<rect y="14" width="18" height="14" fill="#283870"/>
<rect y="42" width="36" height="14" fill="#283870"/>
<rect y="56" width="75" height="14" fill="#283870"/>
<circle cx="40" cy="35" r="7" fill="#283870"/>
<circle cx="75" cy="63" r="7" fill="#283870"/>
<rect width="36" height="14" fill="#283870"/>
<rect y="28" width="40" height="14" fill="#283870"/>
<circle cx="18" cy="21" r="7" fill="#5264A5"/>
<circle cx="35" cy="49" r="7" fill="#5264A5"/>
<path d="M16 12C16 11.4477 16.4477 11 17 11H32C32.5523 11 33 11.4477 33 12V17.8H16V12Z" fill="#FF8080"/>
<rect x="16" y="17.8" width="17" height="6.8" fill="#FF8080"/>
<rect x="16" y="24.6" width="17" height="6.8" fill="#FF8080"/>
<rect x="16" y="31.4" width="17" height="6.8" fill="#FF8080"/>
<rect x="16" y="38.2" width="17" height="6.8" fill="#FF8080"/>
<rect x="16" y="45" width="17" height="6.8" fill="#FF8080"/>
<path d="M16 51.8H33V57.6C33 58.1523 32.5523 58.6 32 58.6H17C16.4477 58.6 16 58.1523 16 57.6V51.8Z" fill="#FF8080"/>
<path d="M18.1693 13.0142L18.975 12.6211H19.0555V15.4165C19.0555 15.6021 19.0629 15.7176 19.0775 15.7632C19.0938 15.8088 19.1263 15.8438 19.1752 15.8682C19.224 15.8926 19.3233 15.9064 19.473 15.9097V16H18.2279V15.9097C18.3841 15.9064 18.4851 15.8934 18.5306 15.8706C18.5762 15.8462 18.6079 15.8145 18.6258 15.7754C18.6437 15.7347 18.6527 15.6151 18.6527 15.4165V13.6294C18.6527 13.3885 18.6446 13.2339 18.6283 13.1655C18.6169 13.1134 18.5957 13.0752 18.5648 13.0508C18.5355 13.0264 18.4997 13.0142 18.4574 13.0142C18.3972 13.0142 18.3133 13.0394 18.2059 13.0898L18.1693 13.0142Z" fill="black"/>
<path d="M25.5425 15.3628L25.3105 16H23.3574V15.9097C23.932 15.3856 24.3364 14.9575 24.5708 14.6255C24.8052 14.2935 24.9224 13.9899 24.9224 13.7148C24.9224 13.5049 24.8581 13.3324 24.7295 13.1973C24.6009 13.0622 24.4471 12.9946 24.2681 12.9946C24.1053 12.9946 23.9588 13.0426 23.8286 13.1387C23.7 13.2331 23.6048 13.3722 23.543 13.5562H23.4526C23.4933 13.255 23.5975 13.0239 23.7651 12.8628C23.9344 12.7017 24.1452 12.6211 24.3974 12.6211C24.666 12.6211 24.8898 12.7074 25.0688 12.8799C25.2495 13.0524 25.3398 13.2559 25.3398 13.4902C25.3398 13.6579 25.3008 13.8255 25.2226 13.9932C25.1022 14.2568 24.9069 14.536 24.6367 14.8306C24.2314 15.2733 23.9783 15.5402 23.8774 15.6313H24.7417C24.9175 15.6313 25.0404 15.6248 25.1103 15.6118C25.182 15.5988 25.2462 15.5728 25.3032 15.5337C25.3602 15.493 25.4098 15.436 25.4521 15.3628H25.5425Z" fill="black"/>
<path d="M29.5026 13.0142L30.3083 12.6211H30.3888V15.4165C30.3888 15.6021 30.3962 15.7176 30.4108 15.7632C30.4271 15.8088 30.4596 15.8438 30.5085 15.8682C30.5573 15.8926 30.6566 15.9064 30.8063 15.9097V16H29.5612V15.9097C29.7175 15.9064 29.8184 15.8934 29.8639 15.8706C29.9095 15.8462 29.9413 15.8145 29.9592 15.7754C29.9771 15.7347 29.986 15.6151 29.986 15.4165V13.6294C29.986 13.3885 29.9779 13.2339 29.9616 13.1655C29.9502 13.1134 29.929 13.0752 29.8981 13.0508C29.8688 13.0264 29.833 13.0142 29.7907 13.0142C29.7305 13.0142 29.6467 13.0394 29.5392 13.0898L29.5026 13.0142Z" fill="black"/>
<path d="M17.764 21.1643C17.764 20.7867 17.821 20.4619 17.9349 20.1901C18.0489 19.9167 18.2002 19.7132 18.389 19.5798C18.5355 19.474 18.6869 19.4211 18.8431 19.4211C19.097 19.4211 19.3249 19.5505 19.5267 19.8093C19.779 20.1299 19.9051 20.5645 19.9051 21.113C19.9051 21.4971 19.8498 21.8234 19.7391 22.092C19.6284 22.3605 19.4868 22.5559 19.3143 22.6779C19.1434 22.7984 18.9782 22.8586 18.8187 22.8586C18.503 22.8586 18.2401 22.6722 18.0301 22.2995C17.8527 21.9854 17.764 21.607 17.764 21.1643ZM18.2425 21.2253C18.2425 21.681 18.2987 22.0529 18.411 22.341C18.5038 22.5835 18.6421 22.7048 18.826 22.7048C18.9139 22.7048 19.0051 22.6657 19.0995 22.5876C19.1939 22.5078 19.2655 22.3752 19.3143 22.1896C19.3892 21.9097 19.4266 21.515 19.4266 21.0056C19.4266 20.628 19.3876 20.313 19.3094 20.0607C19.2508 19.8736 19.1752 19.7409 19.0824 19.6628C19.0157 19.6091 18.9351 19.5822 18.8407 19.5822C18.73 19.5822 18.6315 19.6319 18.5453 19.7312C18.4281 19.8662 18.3483 20.0786 18.306 20.3684C18.2637 20.6581 18.2425 20.9437 18.2425 21.2253Z" fill="black"/>
<path d="M23.4307 21.1643C23.4307 20.7867 23.4876 20.4619 23.6016 20.1901C23.7155 19.9167 23.8668 19.7132 24.0557 19.5798C24.2021 19.474 24.3535 19.4211 24.5098 19.4211C24.7637 19.4211 24.9915 19.5505 25.1933 19.8093C25.4456 20.1299 25.5718 20.5645 25.5718 21.113C25.5718 21.4971 25.5164 21.8234 25.4057 22.092C25.2951 22.3605 25.1535 22.5559 24.9809 22.6779C24.81 22.7984 24.6448 22.8586 24.4853 22.8586C24.1696 22.8586 23.9067 22.6722 23.6968 22.2995C23.5194 21.9854 23.4307 21.607 23.4307 21.1643ZM23.9092 21.2253C23.9092 21.681 23.9653 22.0529 24.0776 22.341C24.1704 22.5835 24.3087 22.7048 24.4927 22.7048C24.5806 22.7048 24.6717 22.6657 24.7661 22.5876C24.8605 22.5078 24.9321 22.3752 24.9809 22.1896C25.0558 21.9097 25.0932 21.515 25.0932 21.0056C25.0932 20.628 25.0542 20.313 24.9761 20.0607C24.9175 19.8736 24.8418 19.7409 24.749 19.6628C24.6823 19.6091 24.6017 19.5822 24.5073 19.5822C24.3966 19.5822 24.2982 19.6319 24.2119 19.7312C24.0947 19.8662 24.015 20.0786 23.9726 20.3684C23.9303 20.6581 23.9092 20.9437 23.9092 21.2253Z" fill="black"/>
<path d="M29.5026 19.8142L30.3083 19.4211H30.3888V22.2165C30.3888 22.4021 30.3962 22.5176 30.4108 22.5632C30.4271 22.6088 30.4596 22.6437 30.5085 22.6682C30.5573 22.6926 30.6566 22.7064 30.8063 22.7097V22.8H29.5612V22.7097C29.7175 22.7064 29.8184 22.6934 29.8639 22.6706C29.9095 22.6462 29.9413 22.6145 29.9592 22.5754C29.9771 22.5347 29.986 22.4151 29.986 22.2165V20.4294C29.986 20.1885 29.9779 20.0339 29.9616 19.9655C29.9502 19.9134 29.929 19.8752 29.8981 19.8508C29.8688 19.8264 29.833 19.8142 29.7907 19.8142C29.7305 19.8142 29.6467 19.8394 29.5392 19.8898L29.5026 19.8142Z" fill="black"/>
<path d="M19.91 28.3793V28.726H19.4657V29.6H19.0629V28.726H17.6615V28.4135L19.1971 26.2211H19.4657V28.3793H19.91ZM19.0629 28.3793V26.7362L17.9007 28.3793H19.0629Z" fill="black"/>
<path d="M23.5039 26.9193C23.5983 26.6964 23.7171 26.5246 23.8603 26.4042C24.0052 26.2821 24.185 26.2211 24.3999 26.2211C24.6652 26.2211 24.8686 26.3074 25.0102 26.4799C25.1177 26.6085 25.1714 26.746 25.1714 26.8925C25.1714 27.1334 25.02 27.3824 24.7173 27.6396C24.9207 27.7193 25.0745 27.8332 25.1787 27.9813C25.2829 28.1295 25.3349 28.3036 25.3349 28.5038C25.3349 28.7903 25.2438 29.0385 25.0615 29.2484C24.8239 29.5219 24.4796 29.6586 24.0288 29.6586C23.8058 29.6586 23.6536 29.6309 23.5723 29.5756C23.4925 29.5202 23.4526 29.4608 23.4526 29.3974C23.4526 29.3502 23.4713 29.3087 23.5088 29.2729C23.5478 29.237 23.5942 29.2191 23.6479 29.2191C23.6886 29.2191 23.7301 29.2257 23.7724 29.2387C23.8001 29.2468 23.8628 29.2769 23.9604 29.329C24.0581 29.3795 24.1256 29.4096 24.1631 29.4193C24.2233 29.4372 24.2876 29.4462 24.3559 29.4462C24.522 29.4462 24.666 29.3819 24.7881 29.2533C24.9118 29.1247 24.9736 28.9726 24.9736 28.7968C24.9736 28.6682 24.9451 28.5429 24.8882 28.4208C24.8459 28.3297 24.7995 28.2605 24.749 28.2133C24.679 28.1482 24.583 28.0896 24.4609 28.0375C24.3389 27.9838 24.2143 27.9569 24.0874 27.9569H24.0093V27.8837C24.1378 27.8674 24.2664 27.821 24.395 27.7445C24.5252 27.668 24.6196 27.5761 24.6782 27.4687C24.7368 27.3612 24.7661 27.2432 24.7661 27.1146C24.7661 26.947 24.7132 26.8119 24.6074 26.7094C24.5032 26.6052 24.373 26.5531 24.2168 26.5531C23.9645 26.5531 23.7537 26.6882 23.5845 26.9584L23.5039 26.9193Z" fill="black"/>
<path d="M31.2092 28.9628L30.9772 29.6H29.0241V29.5097C29.5986 28.9856 30.0031 28.5575 30.2375 28.2255C30.4719 27.8935 30.589 27.5899 30.589 27.3148C30.589 27.1049 30.5247 26.9324 30.3962 26.7973C30.2676 26.6622 30.1138 26.5946 29.9347 26.5946C29.772 26.5946 29.6255 26.6426 29.4953 26.7387C29.3667 26.8331 29.2715 26.9722 29.2096 27.1562H29.1193C29.16 26.855 29.2642 26.6239 29.4318 26.4628C29.6011 26.3017 29.8119 26.2211 30.0641 26.2211C30.3327 26.2211 30.5565 26.3074 30.7355 26.4799C30.9162 26.6524 31.0065 26.8559 31.0065 27.0902C31.0065 27.2579 30.9675 27.4255 30.8893 27.5932C30.7689 27.8568 30.5736 28.136 30.3034 28.4306C29.8981 28.8733 29.645 29.1402 29.5441 29.2313H30.4084C30.5842 29.2313 30.707 29.2248 30.777 29.2118C30.8486 29.1988 30.9129 29.1728 30.9699 29.1337C31.0269 29.093 31.0765 29.036 31.1188 28.9628H31.2092Z" fill="black"/>
<path d="M17.764 34.7643C17.764 34.3867 17.821 34.0619 17.9349 33.7901C18.0489 33.5167 18.2002 33.3132 18.389 33.1798C18.5355 33.074 18.6869 33.0211 18.8431 33.0211C19.097 33.0211 19.3249 33.1505 19.5267 33.4093C19.779 33.7299 19.9051 34.1645 19.9051 34.713C19.9051 35.0971 19.8498 35.4234 19.7391 35.692C19.6284 35.9605 19.4868 36.1559 19.3143 36.2779C19.1434 36.3984 18.9782 36.4586 18.8187 36.4586C18.503 36.4586 18.2401 36.2722 18.0301 35.8995C17.8527 35.5854 17.764 35.207 17.764 34.7643ZM18.2425 34.8253C18.2425 35.281 18.2987 35.6529 18.411 35.941C18.5038 36.1835 18.6421 36.3048 18.826 36.3048C18.9139 36.3048 19.0051 36.2657 19.0995 36.1876C19.1939 36.1078 19.2655 35.9752 19.3143 35.7896C19.3892 35.5097 19.4266 35.115 19.4266 34.6056C19.4266 34.228 19.3876 33.913 19.3094 33.6607C19.2508 33.4736 19.1752 33.3409 19.0824 33.2628C19.0157 33.2091 18.9351 33.1822 18.8407 33.1822C18.73 33.1822 18.6315 33.2319 18.5453 33.3312C18.4281 33.4662 18.3483 33.6786 18.306 33.9684C18.2637 34.2581 18.2425 34.5437 18.2425 34.8253Z" fill="black"/>
<path d="M25.5425 35.7628L25.3105 36.4H23.3574V36.3097C23.932 35.7856 24.3364 35.3575 24.5708 35.0255C24.8052 34.6935 24.9224 34.3899 24.9224 34.1148C24.9224 33.9049 24.8581 33.7324 24.7295 33.5973C24.6009 33.4622 24.4471 33.3946 24.2681 33.3946C24.1053 33.3946 23.9588 33.4426 23.8286 33.5387C23.7 33.6331 23.6048 33.7722 23.543 33.9562H23.4526C23.4933 33.655 23.5975 33.4239 23.7651 33.2628C23.9344 33.1017 24.1452 33.0211 24.3974 33.0211C24.666 33.0211 24.8898 33.1074 25.0688 33.2799C25.2495 33.4524 25.3398 33.6559 25.3398 33.8902C25.3398 34.0579 25.3008 34.2255 25.2226 34.3932C25.1022 34.6568 24.9069 34.936 24.6367 35.2306C24.2314 35.6733 23.9783 35.9402 23.8774 36.0313H24.7417C24.9175 36.0313 25.0404 36.0248 25.1103 36.0118C25.182 35.9988 25.2462 35.9728 25.3032 35.9337C25.3602 35.893 25.4098 35.836 25.4521 35.7628H25.5425Z" fill="black"/>
<path d="M29.1706 33.7193C29.265 33.4964 29.3838 33.3246 29.527 33.2042C29.6719 33.0821 29.8517 33.0211 30.0666 33.0211C30.3319 33.0211 30.5353 33.1074 30.6769 33.2799C30.7844 33.4085 30.8381 33.546 30.8381 33.6925C30.8381 33.9334 30.6867 34.1824 30.384 34.4396C30.5874 34.5193 30.7412 34.6332 30.8454 34.7813C30.9496 34.9295 31.0016 35.1036 31.0016 35.3038C31.0016 35.5903 30.9105 35.8385 30.7282 36.0484C30.4906 36.3219 30.1463 36.4586 29.6955 36.4586C29.4725 36.4586 29.3203 36.4309 29.2389 36.3756C29.1592 36.3202 29.1193 36.2608 29.1193 36.1974C29.1193 36.1502 29.138 36.1087 29.1755 36.0729C29.2145 36.037 29.2609 36.0191 29.3146 36.0191C29.3553 36.0191 29.3968 36.0257 29.4391 36.0387C29.4668 36.0468 29.5295 36.0769 29.6271 36.129C29.7248 36.1795 29.7923 36.2096 29.8298 36.2193C29.89 36.2372 29.9543 36.2462 30.0226 36.2462C30.1886 36.2462 30.3327 36.1819 30.4548 36.0533C30.5785 35.9247 30.6403 35.7726 30.6403 35.5968C30.6403 35.4682 30.6118 35.3429 30.5549 35.2208C30.5125 35.1297 30.4662 35.0605 30.4157 35.0133C30.3457 34.9482 30.2497 34.8896 30.1276 34.8375C30.0055 34.7838 29.881 34.7569 29.7541 34.7569H29.676V34.6837C29.8045 34.6674 29.9331 34.621 30.0617 34.5445C30.1919 34.468 30.2863 34.3761 30.3449 34.2687C30.4035 34.1612 30.4328 34.0432 30.4328 33.9146C30.4328 33.747 30.3799 33.6119 30.2741 33.5094C30.1699 33.4052 30.0397 33.3531 29.8835 33.3531C29.6312 33.3531 29.4204 33.4882 29.2511 33.7584L29.1706 33.7193Z" fill="black"/>
<path d="M19.7538 39.8895L19.5633 40.3045H18.5672L18.35 40.7488C18.7813 40.8123 19.1231 40.9726 19.3754 41.2298C19.5918 41.4511 19.7001 41.7116 19.7001 42.011C19.7001 42.1852 19.6643 42.3463 19.5926 42.4944C19.5227 42.6425 19.4339 42.7687 19.3265 42.8729C19.2191 42.977 19.0995 43.0608 18.9676 43.1243C18.7805 43.2138 18.5884 43.2586 18.3915 43.2586C18.1929 43.2586 18.048 43.2252 17.9569 43.1585C17.8674 43.0901 17.8226 43.0153 17.8226 42.9339C17.8226 42.8883 17.8413 42.8484 17.8788 42.8143C17.9162 42.7785 17.9634 42.7605 18.0204 42.7605C18.0627 42.7605 18.0993 42.7671 18.1302 42.7801C18.1628 42.7931 18.2173 42.8265 18.2938 42.8802C18.4159 42.9648 18.5396 43.0071 18.6649 43.0071C18.8553 43.0071 19.0222 42.9355 19.1654 42.7923C19.3102 42.6474 19.3827 42.4716 19.3827 42.2649C19.3827 42.0647 19.3184 41.8784 19.1898 41.7059C19.0612 41.5317 18.8838 41.3974 18.6576 41.303C18.4802 41.2298 18.2385 41.1875 17.9325 41.1761L18.5672 39.8895H19.7538Z" fill="black"/>
<path d="M25.4912 39.8211V39.9114C25.2764 39.9326 25.1006 39.9757 24.9639 40.0408C24.8288 40.1043 24.6945 40.202 24.561 40.3338C24.4292 40.4656 24.3193 40.6129 24.2314 40.7757C24.1452 40.9368 24.0727 41.1289 24.0141 41.3519C24.2485 41.1907 24.4837 41.1102 24.7197 41.1102C24.946 41.1102 25.1421 41.2013 25.3081 41.3836C25.4741 41.5659 25.5571 41.8003 25.5571 42.0867C25.5571 42.3634 25.4733 42.6157 25.3057 42.8436C25.1038 43.1202 24.8369 43.2586 24.5049 43.2586C24.2786 43.2586 24.0866 43.1837 23.9287 43.034C23.6195 42.7426 23.4648 42.365 23.4648 41.9012C23.4648 41.6049 23.5242 41.3234 23.6431 41.0564C23.7619 40.7895 23.9311 40.5527 24.1509 40.346C24.3722 40.1393 24.5838 40.0001 24.7856 39.9285C24.9875 39.8569 25.1754 39.8211 25.3496 39.8211H25.4912ZM23.9726 41.5301C23.9433 41.7498 23.9287 41.9272 23.9287 42.0623C23.9287 42.2186 23.9572 42.3886 24.0141 42.5726C24.0727 42.7549 24.159 42.8997 24.2729 43.0071C24.3559 43.0836 24.4569 43.1219 24.5757 43.1219C24.7173 43.1219 24.8434 43.0551 24.9541 42.9217C25.0664 42.7882 25.1225 42.5978 25.1225 42.3504C25.1225 42.0721 25.0672 41.8312 24.9565 41.6277C24.8459 41.4243 24.6888 41.3226 24.4853 41.3226C24.4235 41.3226 24.3568 41.3356 24.2851 41.3616C24.2152 41.3877 24.111 41.4438 23.9726 41.5301Z" fill="black"/>
<path d="M31.2433 41.9793V42.326H30.799V43.2H30.3962V42.326H28.9948V42.0135L30.5304 39.8211H30.799V41.9793H31.2433ZM30.3962 41.9793V40.3362L29.2341 41.9793H30.3962Z" fill="black"/>
<path d="M17.764 48.3643C17.764 47.9867 17.821 47.6619 17.9349 47.3901C18.0489 47.1167 18.2002 46.9132 18.389 46.7798C18.5355 46.674 18.6869 46.6211 18.8431 46.6211C19.097 46.6211 19.3249 46.7505 19.5267 47.0093C19.779 47.3299 19.9051 47.7645 19.9051 48.313C19.9051 48.6971 19.8498 49.0234 19.7391 49.292C19.6284 49.5605 19.4868 49.7559 19.3143 49.8779C19.1434 49.9984 18.9782 50.0586 18.8187 50.0586C18.503 50.0586 18.2401 49.8722 18.0301 49.4995C17.8527 49.1854 17.764 48.807 17.764 48.3643ZM18.2425 48.4253C18.2425 48.881 18.2987 49.2529 18.411 49.541C18.5038 49.7835 18.6421 49.9048 18.826 49.9048C18.9139 49.9048 19.0051 49.8657 19.0995 49.7876C19.1939 49.7078 19.2655 49.5752 19.3143 49.3896C19.3892 49.1097 19.4266 48.715 19.4266 48.2056C19.4266 47.828 19.3876 47.513 19.3094 47.2607C19.2508 47.0736 19.1752 46.9409 19.0824 46.8628C19.0157 46.8091 18.9351 46.7822 18.8407 46.7822C18.73 46.7822 18.6315 46.8319 18.5453 46.9312C18.4281 47.0662 18.3483 47.2786 18.306 47.5684C18.2637 47.8581 18.2425 48.1437 18.2425 48.4253Z" fill="black"/>
<path d="M25.5766 48.7793V49.126H25.1323V50H24.7295V49.126H23.3281V48.8135L24.8638 46.6211H25.1323V48.7793H25.5766ZM24.7295 48.7793V47.1362L23.5674 48.7793H24.7295Z" fill="black"/>
<path d="M31.0871 46.6895L30.8967 47.1045H29.9006L29.6833 47.5488C30.1146 47.6123 30.4564 47.7726 30.7087 48.0298C30.9251 48.2511 31.0334 48.5116 31.0334 48.811C31.0334 48.9852 30.9976 49.1463 30.926 49.2944C30.856 49.4425 30.7673 49.5687 30.6598 49.6729C30.5524 49.777 30.4328 49.8608 30.301 49.9243C30.1138 50.0138 29.9217 50.0586 29.7248 50.0586C29.5262 50.0586 29.3814 50.0252 29.2902 49.9585C29.2007 49.8901 29.1559 49.8153 29.1559 49.7339C29.1559 49.6883 29.1747 49.6484 29.2121 49.6143C29.2495 49.5785 29.2967 49.5605 29.3537 49.5605C29.396 49.5605 29.4326 49.5671 29.4635 49.5801C29.4961 49.5931 29.5506 49.6265 29.6271 49.6802C29.7492 49.7648 29.8729 49.8071 29.9982 49.8071C30.1886 49.8071 30.3555 49.7355 30.4987 49.5923C30.6436 49.4474 30.716 49.2716 30.716 49.0649C30.716 48.8647 30.6517 48.6784 30.5231 48.5059C30.3945 48.3317 30.2171 48.1974 29.9909 48.103C29.8135 48.0298 29.5718 47.9875 29.2658 47.9761L29.9006 46.6895H31.0871Z" fill="black"/>
<path d="M18.0863 53.4895H19.8612V53.5822L18.7577 56.8684H18.4842L19.473 53.8874H18.5624C18.3784 53.8874 18.2474 53.9094 18.1693 53.9533C18.0326 54.0282 17.9227 54.1437 17.8397 54.3L17.7689 54.2731L18.0863 53.4895Z" fill="black"/>
<path d="M24.2095 55.1325C23.9474 54.9177 23.7781 54.7451 23.7016 54.6149C23.6268 54.4847 23.5893 54.3496 23.5893 54.2097C23.5893 53.9948 23.6724 53.8101 23.8384 53.6555C24.0044 53.4992 24.2249 53.4211 24.5 53.4211C24.7669 53.4211 24.9818 53.4935 25.1445 53.6384C25.3073 53.7832 25.3887 53.9484 25.3887 54.134C25.3887 54.2577 25.3447 54.3838 25.2568 54.5124C25.1689 54.641 24.9858 54.7923 24.7075 54.9665C24.994 55.1879 25.1836 55.362 25.2764 55.489C25.4001 55.655 25.4619 55.8299 25.4619 56.0139C25.4619 56.2466 25.3732 56.446 25.1958 56.612C25.0184 56.7764 24.7856 56.8586 24.4975 56.8586C24.1834 56.8586 23.9385 56.7601 23.7627 56.5632C23.6227 56.4053 23.5527 56.2328 23.5527 56.0456C23.5527 55.8991 23.6016 55.7543 23.6992 55.611C23.7985 55.4662 23.9686 55.3067 24.2095 55.1325ZM24.5928 54.8713C24.7881 54.6955 24.9118 54.5572 24.9639 54.4562C25.0159 54.3537 25.042 54.2382 25.042 54.1096C25.042 53.9387 24.994 53.8052 24.8979 53.7092C24.8019 53.6115 24.6709 53.5627 24.5049 53.5627C24.3389 53.5627 24.2038 53.6107 24.0996 53.7067C23.9954 53.8028 23.9433 53.9151 23.9433 54.0437C23.9433 54.1283 23.9645 54.2129 24.0068 54.2976C24.0508 54.3822 24.1126 54.4628 24.1924 54.5393L24.5928 54.8713ZM24.3242 55.2253C24.1891 55.3392 24.089 55.4637 24.0239 55.5988C23.9588 55.7323 23.9263 55.8771 23.9263 56.0334C23.9263 56.2434 23.9832 56.4118 24.0972 56.5388C24.2127 56.6641 24.3592 56.7268 24.5366 56.7268C24.7124 56.7268 24.8532 56.6771 24.959 56.5778C25.0648 56.4785 25.1177 56.3581 25.1177 56.2165C25.1177 56.0993 25.0867 55.9943 25.0249 55.9016C24.9093 55.729 24.6758 55.5036 24.3242 55.2253Z" fill="black"/>
<path d="M29.8761 55.1325C29.6141 54.9177 29.4448 54.7451 29.3683 54.6149C29.2935 54.4847 29.256 54.3496 29.256 54.2097C29.256 53.9948 29.339 53.8101 29.5051 53.6555C29.6711 53.4992 29.8916 53.4211 30.1667 53.4211C30.4336 53.4211 30.6484 53.4935 30.8112 53.6384C30.974 53.7832 31.0553 53.9484 31.0553 54.134C31.0553 54.2577 31.0114 54.3838 30.9235 54.5124C30.8356 54.641 30.6525 54.7923 30.3742 54.9665C30.6607 55.1879 30.8503 55.362 30.943 55.489C31.0667 55.655 31.1286 55.8299 31.1286 56.0139C31.1286 56.2466 31.0399 56.446 30.8625 56.612C30.6851 56.7764 30.4523 56.8586 30.1642 56.8586C29.8501 56.8586 29.6052 56.7601 29.4294 56.5632C29.2894 56.4053 29.2194 56.2328 29.2194 56.0456C29.2194 55.8991 29.2682 55.7543 29.3659 55.611C29.4652 55.4662 29.6353 55.3067 29.8761 55.1325ZM30.2594 54.8713C30.4548 54.6955 30.5785 54.5572 30.6305 54.4562C30.6826 54.3537 30.7087 54.2382 30.7087 54.1096C30.7087 53.9387 30.6607 53.8052 30.5646 53.7092C30.4686 53.6115 30.3376 53.5627 30.1716 53.5627C30.0055 53.5627 29.8705 53.6107 29.7663 53.7067C29.6621 53.8028 29.61 53.9151 29.61 54.0437C29.61 54.1283 29.6312 54.2129 29.6735 54.2976C29.7175 54.3822 29.7793 54.4628 29.8591 54.5393L30.2594 54.8713ZM29.9909 55.2253C29.8558 55.3392 29.7557 55.4637 29.6906 55.5988C29.6255 55.7323 29.5929 55.8771 29.5929 56.0334C29.5929 56.2434 29.6499 56.4118 29.7638 56.5388C29.8794 56.6641 30.0259 56.7268 30.2033 56.7268C30.3791 56.7268 30.5199 56.6771 30.6257 56.5778C30.7315 56.4785 30.7844 56.3581 30.7844 56.2165C30.7844 56.0993 30.7534 55.9943 30.6916 55.9016C30.576 55.729 30.3425 55.5036 29.9909 55.2253Z" fill="black"/>
<line x1="16" y1="17.8067" x2="33" y2="17.8067" stroke="white" stroke-width="0.1"/>
<line x1="16" y1="24.6067" x2="33" y2="24.6067" stroke="white" stroke-width="0.1"/>
<line x1="16" y1="31.4067" x2="33" y2="31.4067" stroke="white" stroke-width="0.1"/>
<line x1="16" y1="38.2067" x2="33" y2="38.2067" stroke="white" stroke-width="0.1"/>
<line x1="16" y1="45.0067" x2="33" y2="45.0067" stroke="white" stroke-width="0.1"/>
<line x1="16" y1="51.8067" x2="33" y2="51.8067" stroke="white" stroke-width="0.1"/>
<path d="M41 12C41 11.4477 41.4477 11 42 11H57C57.5523 11 58 11.4477 58 12V17.8H41V12Z" fill="#FF8080"/>
<rect x="41" y="17.8" width="17" height="6.8" fill="#FF8080"/>
<rect x="41" y="24.6" width="17" height="6.8" fill="#FF8080"/>
<rect x="41" y="31.4" width="17" height="6.8" fill="#FF8080"/>
<rect x="41" y="38.2" width="17" height="6.8" fill="#FF8080"/>
<rect x="41" y="45" width="17" height="6.8" fill="#FF8080"/>
<path d="M41 51.8H58V57.6C58 58.1523 57.5523 58.6 57 58.6H42C41.4477 58.6 41 58.1523 41 57.6V51.8Z" fill="#FF8080"/>
<path d="M42.764 14.3643C42.764 13.9867 42.821 13.6619 42.9349 13.3901C43.0489 13.1167 43.2002 12.9132 43.389 12.7798C43.5355 12.674 43.6869 12.6211 43.8431 12.6211C44.097 12.6211 44.3249 12.7505 44.5267 13.0093C44.779 13.3299 44.9051 13.7645 44.9051 14.313C44.9051 14.6971 44.8498 15.0234 44.7391 15.292C44.6284 15.5605 44.4868 15.7559 44.3143 15.8779C44.1434 15.9984 43.9782 16.0586 43.8187 16.0586C43.503 16.0586 43.2401 15.8722 43.0301 15.4995C42.8527 15.1854 42.764 14.807 42.764 14.3643ZM43.2425 14.4253C43.2425 14.881 43.2987 15.2529 43.411 15.541C43.5038 15.7835 43.6421 15.9048 43.826 15.9048C43.9139 15.9048 44.0051 15.8657 44.0995 15.7876C44.1939 15.7078 44.2655 15.5752 44.3143 15.3896C44.3892 15.1097 44.4266 14.715 44.4266 14.2056C44.4266 13.828 44.3876 13.513 44.3094 13.2607C44.2508 13.0736 44.1752 12.9409 44.0824 12.8628C44.0157 12.8091 43.9351 12.7822 43.8407 12.7822C43.73 12.7822 43.6315 12.8319 43.5453 12.9312C43.4281 13.0662 43.3483 13.2786 43.306 13.5684C43.2637 13.8581 43.2425 14.1437 43.2425 14.4253Z" fill="black"/>
<path d="M48.4307 14.3643C48.4307 13.9867 48.4876 13.6619 48.6016 13.3901C48.7155 13.1167 48.8668 12.9132 49.0557 12.7798C49.2021 12.674 49.3535 12.6211 49.5098 12.6211C49.7637 12.6211 49.9915 12.7505 50.1933 13.0093C50.4456 13.3299 50.5718 13.7645 50.5718 14.313C50.5718 14.6971 50.5164 15.0234 50.4057 15.292C50.2951 15.5605 50.1535 15.7559 49.9809 15.8779C49.81 15.9984 49.6448 16.0586 49.4853 16.0586C49.1696 16.0586 48.9067 15.8722 48.6968 15.4995C48.5194 15.1854 48.4307 14.807 48.4307 14.3643ZM48.9092 14.4253C48.9092 14.881 48.9653 15.2529 49.0776 15.541C49.1704 15.7835 49.3087 15.9048 49.4927 15.9048C49.5806 15.9048 49.6717 15.8657 49.7661 15.7876C49.8605 15.7078 49.9321 15.5752 49.9809 15.3896C50.0558 15.1097 50.0932 14.715 50.0932 14.2056C50.0932 13.828 50.0542 13.513 49.9761 13.2607C49.9175 13.0736 49.8418 12.9409 49.749 12.8628C49.6823 12.8091 49.6017 12.7822 49.5073 12.7822C49.3966 12.7822 49.2982 12.8319 49.2119 12.9312C49.0947 13.0662 49.015 13.2786 48.9726 13.5684C48.9303 13.8581 48.9092 14.1437 48.9092 14.4253Z" fill="black"/>
<path d="M54.5026 13.0142L55.3083 12.6211H55.3888V15.4165C55.3888 15.6021 55.3962 15.7176 55.4108 15.7632C55.4271 15.8088 55.4596 15.8438 55.5085 15.8682C55.5573 15.8926 55.6566 15.9064 55.8063 15.9097V16H54.5612V15.9097C54.7175 15.9064 54.8184 15.8934 54.8639 15.8706C54.9095 15.8462 54.9413 15.8145 54.9592 15.7754C54.9771 15.7347 54.986 15.6151 54.986 15.4165V13.6294C54.986 13.3885 54.9779 13.2339 54.9616 13.1655C54.9502 13.1134 54.929 13.0752 54.8981 13.0508C54.8688 13.0264 54.833 13.0142 54.7907 13.0142C54.7305 13.0142 54.6467 13.0394 54.5392 13.0898L54.5026 13.0142Z" fill="black"/>
<path d="M43.1693 19.8142L43.975 19.4211H44.0555V22.2165C44.0555 22.4021 44.0629 22.5176 44.0775 22.5632C44.0938 22.6088 44.1263 22.6437 44.1752 22.6682C44.224 22.6926 44.3233 22.7064 44.473 22.7097V22.8H43.2279V22.7097C43.3841 22.7064 43.4851 22.6934 43.5306 22.6706C43.5762 22.6462 43.6079 22.6145 43.6258 22.5754C43.6437 22.5347 43.6527 22.4151 43.6527 22.2165V20.4294C43.6527 20.1885 43.6446 20.0339 43.6283 19.9655C43.6169 19.9134 43.5957 19.8752 43.5648 19.8508C43.5355 19.8264 43.4997 19.8142 43.4574 19.8142C43.3972 19.8142 43.3133 19.8394 43.2059 19.8898L43.1693 19.8142Z" fill="black"/>
<path d="M50.5425 22.1628L50.3105 22.8H48.3574V22.7097C48.932 22.1856 49.3364 21.7575 49.5708 21.4255C49.8052 21.0935 49.9224 20.7899 49.9224 20.5148C49.9224 20.3049 49.8581 20.1324 49.7295 19.9973C49.6009 19.8622 49.4471 19.7946 49.2681 19.7946C49.1053 19.7946 48.9588 19.8426 48.8286 19.9387C48.7 20.0331 48.6048 20.1722 48.543 20.3562H48.4526C48.4933 20.055 48.5975 19.8239 48.7651 19.6628C48.9344 19.5017 49.1452 19.4211 49.3974 19.4211C49.666 19.4211 49.8898 19.5074 50.0688 19.6799C50.2495 19.8524 50.3398 20.0559 50.3398 20.2902C50.3398 20.4579 50.3008 20.6255 50.2226 20.7932C50.1022 21.0568 49.9069 21.336 49.6367 21.6306C49.2314 22.0733 48.9783 22.3402 48.8774 22.4313H49.7417C49.9175 22.4313 50.0404 22.4248 50.1103 22.4118C50.182 22.3988 50.2462 22.3728 50.3032 22.3337C50.3602 22.293 50.4098 22.236 50.4521 22.1628H50.5425Z" fill="black"/>
<path d="M54.5026 19.8142L55.3083 19.4211H55.3888V22.2165C55.3888 22.4021 55.3962 22.5176 55.4108 22.5632C55.4271 22.6088 55.4596 22.6437 55.5085 22.6682C55.5573 22.6926 55.6566 22.7064 55.8063 22.7097V22.8H54.5612V22.7097C54.7175 22.7064 54.8184 22.6934 54.8639 22.6706C54.9095 22.6462 54.9413 22.6145 54.9592 22.5754C54.9771 22.5347 54.986 22.4151 54.986 22.2165V20.4294C54.986 20.1885 54.9779 20.0339 54.9616 19.9655C54.9502 19.9134 54.929 19.8752 54.8981 19.8508C54.8688 19.8264 54.833 19.8142 54.7907 19.8142C54.7305 19.8142 54.6467 19.8394 54.5392 19.8898L54.5026 19.8142Z" fill="black"/>
<path d="M42.764 27.9643C42.764 27.5867 42.821 27.2619 42.9349 26.9901C43.0489 26.7167 43.2002 26.5132 43.389 26.3798C43.5355 26.274 43.6869 26.2211 43.8431 26.2211C44.097 26.2211 44.3249 26.3505 44.5267 26.6093C44.779 26.9299 44.9051 27.3645 44.9051 27.913C44.9051 28.2971 44.8498 28.6234 44.7391 28.892C44.6284 29.1605 44.4868 29.3559 44.3143 29.4779C44.1434 29.5984 43.9782 29.6586 43.8187 29.6586C43.503 29.6586 43.2401 29.4722 43.0301 29.0995C42.8527 28.7854 42.764 28.407 42.764 27.9643ZM43.2425 28.0253C43.2425 28.481 43.2987 28.8529 43.411 29.141C43.5038 29.3835 43.6421 29.5048 43.826 29.5048C43.9139 29.5048 44.0051 29.4657 44.0995 29.3876C44.1939 29.3078 44.2655 29.1752 44.3143 28.9896C44.3892 28.7097 44.4266 28.315 44.4266 27.8056C44.4266 27.428 44.3876 27.113 44.3094 26.8607C44.2508 26.6736 44.1752 26.5409 44.0824 26.4628C44.0157 26.4091 43.9351 26.3822 43.8407 26.3822C43.73 26.3822 43.6315 26.4319 43.5453 26.5312C43.4281 26.6662 43.3483 26.8786 43.306 27.1684C43.2637 27.4581 43.2425 27.7437 43.2425 28.0253Z" fill="black"/>
<path d="M50.5425 28.9628L50.3105 29.6H48.3574V29.5097C48.932 28.9856 49.3364 28.5575 49.5708 28.2255C49.8052 27.8935 49.9224 27.5899 49.9224 27.3148C49.9224 27.1049 49.8581 26.9324 49.7295 26.7973C49.6009 26.6622 49.4471 26.5946 49.2681 26.5946C49.1053 26.5946 48.9588 26.6426 48.8286 26.7387C48.7 26.8331 48.6048 26.9722 48.543 27.1562H48.4526C48.4933 26.855 48.5975 26.6239 48.7651 26.4628C48.9344 26.3017 49.1452 26.2211 49.3974 26.2211C49.666 26.2211 49.8898 26.3074 50.0688 26.4799C50.2495 26.6524 50.3398 26.8559 50.3398 27.0902C50.3398 27.2579 50.3008 27.4255 50.2226 27.5932C50.1022 27.8568 49.9069 28.136 49.6367 28.4306C49.2314 28.8733 48.9783 29.1402 48.8774 29.2313H49.7417C49.9175 29.2313 50.0404 29.2248 50.1103 29.2118C50.182 29.1988 50.2462 29.1728 50.3032 29.1337C50.3602 29.093 50.4098 29.036 50.4521 28.9628H50.5425Z" fill="black"/>
<path d="M54.1706 26.9193C54.265 26.6964 54.3838 26.5246 54.527 26.4042C54.6719 26.2821 54.8517 26.2211 55.0666 26.2211C55.3319 26.2211 55.5353 26.3074 55.6769 26.4799C55.7844 26.6085 55.8381 26.746 55.8381 26.8925C55.8381 27.1334 55.6867 27.3824 55.384 27.6396C55.5874 27.7193 55.7412 27.8332 55.8454 27.9813C55.9496 28.1295 56.0016 28.3036 56.0016 28.5038C56.0016 28.7903 55.9105 29.0385 55.7282 29.2484C55.4906 29.5219 55.1463 29.6586 54.6955 29.6586C54.4725 29.6586 54.3203 29.6309 54.2389 29.5756C54.1592 29.5202 54.1193 29.4608 54.1193 29.3974C54.1193 29.3502 54.138 29.3087 54.1755 29.2729C54.2145 29.237 54.2609 29.2191 54.3146 29.2191C54.3553 29.2191 54.3968 29.2257 54.4391 29.2387C54.4668 29.2468 54.5295 29.2769 54.6271 29.329C54.7248 29.3795 54.7923 29.4096 54.8298 29.4193C54.89 29.4372 54.9543 29.4462 55.0226 29.4462C55.1886 29.4462 55.3327 29.3819 55.4548 29.2533C55.5785 29.1247 55.6403 28.9726 55.6403 28.7968C55.6403 28.6682 55.6118 28.5429 55.5549 28.4208C55.5125 28.3297 55.4662 28.2605 55.4157 28.2133C55.3457 28.1482 55.2497 28.0896 55.1276 28.0375C55.0055 27.9838 54.881 27.9569 54.7541 27.9569H54.676V27.8837C54.8045 27.8674 54.9331 27.821 55.0617 27.7445C55.1919 27.668 55.2863 27.5761 55.3449 27.4687C55.4035 27.3612 55.4328 27.2432 55.4328 27.1146C55.4328 26.947 55.3799 26.8119 55.2741 26.7094C55.1699 26.6052 55.0397 26.5531 54.8835 26.5531C54.6312 26.5531 54.4204 26.6882 54.2511 26.9584L54.1706 26.9193Z" fill="black"/>
<path d="M44.91 35.1793V35.526H44.4657V36.4H44.0629V35.526H42.6615V35.2135L44.1971 33.0211H44.4657V35.1793H44.91ZM44.0629 35.1793V33.5362L42.9007 35.1793H44.0629Z" fill="black"/>
<path d="M48.5039 33.7193C48.5983 33.4964 48.7171 33.3246 48.8603 33.2042C49.0052 33.0821 49.185 33.0211 49.3999 33.0211C49.6652 33.0211 49.8686 33.1074 50.0102 33.2799C50.1177 33.4085 50.1714 33.546 50.1714 33.6925C50.1714 33.9334 50.02 34.1824 49.7173 34.4396C49.9207 34.5193 50.0745 34.6332 50.1787 34.7813C50.2829 34.9295 50.3349 35.1036 50.3349 35.3038C50.3349 35.5903 50.2438 35.8385 50.0615 36.0484C49.8239 36.3219 49.4796 36.4586 49.0288 36.4586C48.8058 36.4586 48.6536 36.4309 48.5723 36.3756C48.4925 36.3202 48.4526 36.2608 48.4526 36.1974C48.4526 36.1502 48.4713 36.1087 48.5088 36.0729C48.5478 36.037 48.5942 36.0191 48.6479 36.0191C48.6886 36.0191 48.7301 36.0257 48.7724 36.0387C48.8001 36.0468 48.8628 36.0769 48.9604 36.129C49.0581 36.1795 49.1256 36.2096 49.1631 36.2193C49.2233 36.2372 49.2876 36.2462 49.3559 36.2462C49.522 36.2462 49.666 36.1819 49.7881 36.0533C49.9118 35.9247 49.9736 35.7726 49.9736 35.5968C49.9736 35.4682 49.9451 35.3429 49.8882 35.2208C49.8459 35.1297 49.7995 35.0605 49.749 35.0133C49.679 34.9482 49.583 34.8896 49.4609 34.8375C49.3389 34.7838 49.2143 34.7569 49.0874 34.7569H49.0093V34.6837C49.1378 34.6674 49.2664 34.621 49.395 34.5445C49.5252 34.468 49.6196 34.3761 49.6782 34.2687C49.7368 34.1612 49.7661 34.0432 49.7661 33.9146C49.7661 33.747 49.7132 33.6119 49.6074 33.5094C49.5032 33.4052 49.373 33.3531 49.2168 33.3531C48.9645 33.3531 48.7537 33.4882 48.5845 33.7584L48.5039 33.7193Z" fill="black"/>
<path d="M56.2092 35.7628L55.9772 36.4H54.0241V36.3097C54.5986 35.7856 55.0031 35.3575 55.2375 35.0255C55.4719 34.6935 55.589 34.3899 55.589 34.1148C55.589 33.9049 55.5247 33.7324 55.3962 33.5973C55.2676 33.4622 55.1138 33.3946 54.9347 33.3946C54.772 33.3946 54.6255 33.4426 54.4953 33.5387C54.3667 33.6331 54.2715 33.7722 54.2096 33.9562H54.1193C54.16 33.655 54.2642 33.4239 54.4318 33.2628C54.6011 33.1017 54.8119 33.0211 55.0641 33.0211C55.3327 33.0211 55.5565 33.1074 55.7355 33.2799C55.9162 33.4524 56.0065 33.6559 56.0065 33.8902C56.0065 34.0579 55.9675 34.2255 55.8893 34.3932C55.7689 34.6568 55.5736 34.936 55.3034 35.2306C54.8981 35.6733 54.645 35.9402 54.5441 36.0313H55.4084C55.5842 36.0313 55.707 36.0248 55.777 36.0118C55.8486 35.9988 55.9129 35.9728 55.9699 35.9337C56.0269 35.893 56.0765 35.836 56.1188 35.7628H56.2092Z" fill="black"/>
<path d="M42.764 41.5643C42.764 41.1867 42.821 40.8619 42.9349 40.5901C43.0489 40.3167 43.2002 40.1132 43.389 39.9798C43.5355 39.874 43.6869 39.8211 43.8431 39.8211C44.097 39.8211 44.3249 39.9505 44.5267 40.2093C44.779 40.5299 44.9051 40.9645 44.9051 41.513C44.9051 41.8971 44.8498 42.2234 44.7391 42.492C44.6284 42.7605 44.4868 42.9559 44.3143 43.0779C44.1434 43.1984 43.9782 43.2586 43.8187 43.2586C43.503 43.2586 43.2401 43.0722 43.0301 42.6995C42.8527 42.3854 42.764 42.007 42.764 41.5643ZM43.2425 41.6253C43.2425 42.081 43.2987 42.4529 43.411 42.741C43.5038 42.9835 43.6421 43.1048 43.826 43.1048C43.9139 43.1048 44.0051 43.0657 44.0995 42.9876C44.1939 42.9078 44.2655 42.7752 44.3143 42.5896C44.3892 42.3097 44.4266 41.915 44.4266 41.4056C44.4266 41.028 44.3876 40.713 44.3094 40.4607C44.2508 40.2736 44.1752 40.1409 44.0824 40.0628C44.0157 40.0091 43.9351 39.9822 43.8407 39.9822C43.73 39.9822 43.6315 40.0319 43.5453 40.1312C43.4281 40.2662 43.3483 40.4786 43.306 40.7684C43.2637 41.0581 43.2425 41.3437 43.2425 41.6253Z" fill="black"/>
<path d="M50.5766 41.9793V42.326H50.1323V43.2H49.7295V42.326H48.3281V42.0135L49.8638 39.8211H50.1323V41.9793H50.5766ZM49.7295 41.9793V40.3362L48.5674 41.9793H49.7295Z" fill="black"/>
<path d="M56.0871 39.8895L55.8967 40.3045H54.9006L54.6833 40.7488C55.1146 40.8123 55.4564 40.9726 55.7087 41.2298C55.9251 41.4511 56.0334 41.7116 56.0334 42.011C56.0334 42.1852 55.9976 42.3463 55.926 42.4944C55.856 42.6425 55.7673 42.7687 55.6598 42.8729C55.5524 42.977 55.4328 43.0608 55.301 43.1243C55.1138 43.2138 54.9217 43.2586 54.7248 43.2586C54.5262 43.2586 54.3814 43.2252 54.2902 43.1585C54.2007 43.0901 54.1559 43.0153 54.1559 42.9339C54.1559 42.8883 54.1747 42.8484 54.2121 42.8143C54.2495 42.7785 54.2967 42.7605 54.3537 42.7605C54.396 42.7605 54.4326 42.7671 54.4635 42.7801C54.4961 42.7931 54.5506 42.8265 54.6271 42.8802C54.7492 42.9648 54.8729 43.0071 54.9982 43.0071C55.1886 43.0071 55.3555 42.9355 55.4987 42.7923C55.6436 42.6474 55.716 42.4716 55.716 42.2649C55.716 42.0647 55.6517 41.8784 55.5231 41.7059C55.3945 41.5317 55.2171 41.3974 54.9909 41.303C54.8135 41.2298 54.5718 41.1875 54.2658 41.1761L54.9006 39.8895H56.0871Z" fill="black"/>
<path d="M44.7538 46.6895L44.5633 47.1045H43.5672L43.35 47.5488C43.7813 47.6123 44.1231 47.7726 44.3754 48.0298C44.5918 48.2511 44.7001 48.5116 44.7001 48.811C44.7001 48.9852 44.6643 49.1463 44.5926 49.2944C44.5227 49.4425 44.4339 49.5687 44.3265 49.6729C44.2191 49.777 44.0995 49.8608 43.9676 49.9243C43.7805 50.0138 43.5884 50.0586 43.3915 50.0586C43.1929 50.0586 43.048 50.0252 42.9569 49.9585C42.8674 49.8901 42.8226 49.8153 42.8226 49.7339C42.8226 49.6883 42.8413 49.6484 42.8788 49.6143C42.9162 49.5785 42.9634 49.5605 43.0204 49.5605C43.0627 49.5605 43.0993 49.5671 43.1302 49.5801C43.1628 49.5931 43.2173 49.6265 43.2938 49.6802C43.4159 49.7648 43.5396 49.8071 43.6649 49.8071C43.8553 49.8071 44.0222 49.7355 44.1654 49.5923C44.3102 49.4474 44.3827 49.2716 44.3827 49.0649C44.3827 48.8647 44.3184 48.6784 44.1898 48.5059C44.0612 48.3317 43.8838 48.1974 43.6576 48.103C43.4802 48.0298 43.2385 47.9875 42.9325 47.9761L43.5672 46.6895H44.7538Z" fill="black"/>
<path d="M50.4912 46.6211V46.7114C50.2764 46.7326 50.1006 46.7757 49.9639 46.8408C49.8288 46.9043 49.6945 47.002 49.561 47.1338C49.4292 47.2656 49.3193 47.4129 49.2314 47.5757C49.1452 47.7368 49.0727 47.9289 49.0141 48.1519C49.2485 47.9907 49.4837 47.9102 49.7197 47.9102C49.946 47.9102 50.1421 48.0013 50.3081 48.1836C50.4741 48.3659 50.5571 48.6003 50.5571 48.8867C50.5571 49.1634 50.4733 49.4157 50.3057 49.6436C50.1038 49.9202 49.8369 50.0586 49.5049 50.0586C49.2786 50.0586 49.0866 49.9837 48.9287 49.834C48.6195 49.5426 48.4648 49.165 48.4648 48.7012C48.4648 48.4049 48.5242 48.1234 48.6431 47.8564C48.7619 47.5895 48.9311 47.3527 49.1509 47.146C49.3722 46.9393 49.5838 46.8001 49.7856 46.7285C49.9875 46.6569 50.1754 46.6211 50.3496 46.6211H50.4912ZM48.9726 48.3301C48.9433 48.5498 48.9287 48.7272 48.9287 48.8623C48.9287 49.0186 48.9572 49.1886 49.0141 49.3726C49.0727 49.5549 49.159 49.6997 49.2729 49.8071C49.3559 49.8836 49.4569 49.9219 49.5757 49.9219C49.7173 49.9219 49.8434 49.8551 49.9541 49.7217C50.0664 49.5882 50.1225 49.3978 50.1225 49.1504C50.1225 48.8721 50.0672 48.6312 49.9565 48.4277C49.8459 48.2243 49.6888 48.1226 49.4853 48.1226C49.4235 48.1226 49.3568 48.1356 49.2851 48.1616C49.2152 48.1877 49.111 48.2438 48.9726 48.3301Z" fill="black"/>
<path d="M56.2433 48.7793V49.126H55.799V50H55.3962V49.126H53.9948V48.8135L55.5304 46.6211H55.799V48.7793H56.2433ZM55.3962 48.7793V47.1362L54.2341 48.7793H55.3962Z" fill="black"/>
<path d="M43.0863 53.4895H44.8612V53.5822L43.7577 56.8684H43.4842L44.473 53.8874H43.5624C43.3784 53.8874 43.2474 53.9094 43.1693 53.9533C43.0326 54.0282 42.9227 54.1437 42.8397 54.3L42.7689 54.2731L43.0863 53.4895Z" fill="black"/>
<path d="M49.2095 55.1325C48.9474 54.9177 48.7781 54.7451 48.7016 54.6149C48.6268 54.4847 48.5893 54.3496 48.5893 54.2097C48.5893 53.9948 48.6724 53.8101 48.8384 53.6555C49.0044 53.4992 49.2249 53.4211 49.5 53.4211C49.7669 53.4211 49.9818 53.4935 50.1445 53.6384C50.3073 53.7832 50.3887 53.9484 50.3887 54.134C50.3887 54.2577 50.3447 54.3838 50.2568 54.5124C50.1689 54.641 49.9858 54.7923 49.7075 54.9665C49.994 55.1879 50.1836 55.362 50.2764 55.489C50.4001 55.655 50.4619 55.8299 50.4619 56.0139C50.4619 56.2466 50.3732 56.446 50.1958 56.612C50.0184 56.7764 49.7856 56.8586 49.4975 56.8586C49.1834 56.8586 48.9385 56.7601 48.7627 56.5632C48.6227 56.4053 48.5527 56.2328 48.5527 56.0456C48.5527 55.8991 48.6016 55.7543 48.6992 55.611C48.7985 55.4662 48.9686 55.3067 49.2095 55.1325ZM49.5928 54.8713C49.7881 54.6955 49.9118 54.5572 49.9639 54.4562C50.0159 54.3537 50.042 54.2382 50.042 54.1096C50.042 53.9387 49.994 53.8052 49.8979 53.7092C49.8019 53.6115 49.6709 53.5627 49.5049 53.5627C49.3389 53.5627 49.2038 53.6107 49.0996 53.7067C48.9954 53.8028 48.9433 53.9151 48.9433 54.0437C48.9433 54.1283 48.9645 54.2129 49.0068 54.2976C49.0508 54.3822 49.1126 54.4628 49.1924 54.5393L49.5928 54.8713ZM49.3242 55.2253C49.1891 55.3392 49.089 55.4637 49.0239 55.5988C48.9588 55.7323 48.9263 55.8771 48.9263 56.0334C48.9263 56.2434 48.9832 56.4118 49.0972 56.5388C49.2127 56.6641 49.3592 56.7268 49.5366 56.7268C49.7124 56.7268 49.8532 56.6771 49.959 56.5778C50.0648 56.4785 50.1177 56.3581 50.1177 56.2165C50.1177 56.0993 50.0867 55.9943 50.0249 55.9016C49.9093 55.729 49.6758 55.5036 49.3242 55.2253Z" fill="black"/>
<path d="M54.8761 55.1325C54.6141 54.9177 54.4448 54.7451 54.3683 54.6149C54.2935 54.4847 54.256 54.3496 54.256 54.2097C54.256 53.9948 54.339 53.8101 54.5051 53.6555C54.6711 53.4992 54.8916 53.4211 55.1667 53.4211C55.4336 53.4211 55.6484 53.4935 55.8112 53.6384C55.974 53.7832 56.0553 53.9484 56.0553 54.134C56.0553 54.2577 56.0114 54.3838 55.9235 54.5124C55.8356 54.641 55.6525 54.7923 55.3742 54.9665C55.6607 55.1879 55.8503 55.362 55.943 55.489C56.0667 55.655 56.1286 55.8299 56.1286 56.0139C56.1286 56.2466 56.0399 56.446 55.8625 56.612C55.6851 56.7764 55.4523 56.8586 55.1642 56.8586C54.8501 56.8586 54.6052 56.7601 54.4294 56.5632C54.2894 56.4053 54.2194 56.2328 54.2194 56.0456C54.2194 55.8991 54.2682 55.7543 54.3659 55.611C54.4652 55.4662 54.6353 55.3067 54.8761 55.1325ZM55.2594 54.8713C55.4548 54.6955 55.5785 54.5572 55.6305 54.4562C55.6826 54.3537 55.7087 54.2382 55.7087 54.1096C55.7087 53.9387 55.6607 53.8052 55.5646 53.7092C55.4686 53.6115 55.3376 53.5627 55.1716 53.5627C55.0055 53.5627 54.8705 53.6107 54.7663 53.7067C54.6621 53.8028 54.61 53.9151 54.61 54.0437C54.61 54.1283 54.6312 54.2129 54.6735 54.2976C54.7175 54.3822 54.7793 54.4628 54.8591 54.5393L55.2594 54.8713ZM54.9909 55.2253C54.8558 55.3392 54.7557 55.4637 54.6906 55.5988C54.6255 55.7323 54.5929 55.8771 54.5929 56.0334C54.5929 56.2434 54.6499 56.4118 54.7638 56.5388C54.8794 56.6641 55.0259 56.7268 55.2033 56.7268C55.3791 56.7268 55.5199 56.6771 55.6257 56.5778C55.7315 56.4785 55.7844 56.3581 55.7844 56.2165C55.7844 56.0993 55.7534 55.9943 55.6916 55.9016C55.576 55.729 55.3425 55.5036 54.9909 55.2253Z" fill="black"/>
<line x1="41" y1="17.8067" x2="58" y2="17.8067" stroke="white" stroke-width="0.1"/>
<line x1="41" y1="24.6067" x2="58" y2="24.6067" stroke="white" stroke-width="0.1"/>
<line x1="41" y1="31.4067" x2="58" y2="31.4067" stroke="white" stroke-width="0.1"/>
<line x1="41" y1="38.2067" x2="58" y2="38.2067" stroke="white" stroke-width="0.1"/>
<line x1="41" y1="45.0067" x2="58" y2="45.0067" stroke="white" stroke-width="0.1"/>
<line x1="41" y1="51.8067" x2="58" y2="51.8067" stroke="white" stroke-width="0.1"/>
<path d="M66 12C66 11.4477 66.4477 11 67 11H82C82.5523 11 83 11.4477 83 12V17.8H66V12Z" fill="#FF8080"/>
<rect x="66" y="17.8" width="17" height="6.8" fill="#FF8080"/>
<rect x="66" y="24.6" width="17" height="6.8" fill="#FF8080"/>
<rect x="66" y="31.4" width="17" height="6.8" fill="#FF8080"/>
<rect x="66" y="38.2" width="17" height="6.8" fill="#FF8080"/>
<rect x="66" y="45" width="17" height="6.8" fill="#FF8080"/>
<path d="M66 51.8H83V57.6C83 58.1523 82.5523 58.6 82 58.6H67C66.4477 58.6 66 58.1523 66 57.6V51.8Z" fill="#FF8080"/>
<path d="M67.764 14.3643C67.764 13.9867 67.821 13.6619 67.9349 13.3901C68.0489 13.1167 68.2002 12.9132 68.389 12.7798C68.5355 12.674 68.6869 12.6211 68.8431 12.6211C69.097 12.6211 69.3249 12.7505 69.5267 13.0093C69.779 13.3299 69.9051 13.7645 69.9051 14.313C69.9051 14.6971 69.8498 15.0234 69.7391 15.292C69.6284 15.5605 69.4868 15.7559 69.3143 15.8779C69.1434 15.9984 68.9782 16.0586 68.8187 16.0586C68.503 16.0586 68.2401 15.8722 68.0301 15.4995C67.8527 15.1854 67.764 14.807 67.764 14.3643ZM68.2425 14.4253C68.2425 14.881 68.2987 15.2529 68.411 15.541C68.5038 15.7835 68.6421 15.9048 68.826 15.9048C68.9139 15.9048 69.0051 15.8657 69.0995 15.7876C69.1939 15.7078 69.2655 15.5752 69.3143 15.3896C69.3892 15.1097 69.4266 14.715 69.4266 14.2056C69.4266 13.828 69.3876 13.513 69.3094 13.2607C69.2508 13.0736 69.1752 12.9409 69.0824 12.8628C69.0157 12.8091 68.9351 12.7822 68.8407 12.7822C68.73 12.7822 68.6315 12.8319 68.5453 12.9312C68.4281 13.0662 68.3483 13.2786 68.306 13.5684C68.2637 13.8581 68.2425 14.1437 68.2425 14.4253Z" fill="black"/>
<path d="M73.4307 14.3643C73.4307 13.9867 73.4876 13.6619 73.6016 13.3901C73.7155 13.1167 73.8668 12.9132 74.0557 12.7798C74.2021 12.674 74.3535 12.6211 74.5098 12.6211C74.7637 12.6211 74.9915 12.7505 75.1933 13.0093C75.4456 13.3299 75.5718 13.7645 75.5718 14.313C75.5718 14.6971 75.5164 15.0234 75.4057 15.292C75.2951 15.5605 75.1535 15.7559 74.9809 15.8779C74.81 15.9984 74.6448 16.0586 74.4853 16.0586C74.1696 16.0586 73.9067 15.8722 73.6968 15.4995C73.5194 15.1854 73.4307 14.807 73.4307 14.3643ZM73.9092 14.4253C73.9092 14.881 73.9653 15.2529 74.0776 15.541C74.1704 15.7835 74.3087 15.9048 74.4927 15.9048C74.5806 15.9048 74.6717 15.8657 74.7661 15.7876C74.8605 15.7078 74.9321 15.5752 74.9809 15.3896C75.0558 15.1097 75.0932 14.715 75.0932 14.2056C75.0932 13.828 75.0542 13.513 74.9761 13.2607C74.9175 13.0736 74.8418 12.9409 74.749 12.8628C74.6823 12.8091 74.6017 12.7822 74.5073 12.7822C74.3966 12.7822 74.2982 12.8319 74.2119 12.9312C74.0947 13.0662 74.015 13.2786 73.9726 13.5684C73.9303 13.8581 73.9092 14.1437 73.9092 14.4253Z" fill="black"/>
<path d="M79.5026 13.0142L80.3083 12.6211H80.3888V15.4165C80.3888 15.6021 80.3962 15.7176 80.4108 15.7632C80.4271 15.8088 80.4596 15.8438 80.5085 15.8682C80.5573 15.8926 80.6566 15.9064 80.8063 15.9097V16H79.5612V15.9097C79.7175 15.9064 79.8184 15.8934 79.8639 15.8706C79.9095 15.8462 79.9413 15.8145 79.9592 15.7754C79.9771 15.7347 79.986 15.6151 79.986 15.4165V13.6294C79.986 13.3885 79.9779 13.2339 79.9616 13.1655C79.9502 13.1134 79.929 13.0752 79.8981 13.0508C79.8688 13.0264 79.833 13.0142 79.7907 13.0142C79.7305 13.0142 79.6467 13.0394 79.5392 13.0898L79.5026 13.0142Z" fill="black"/>
<path d="M67.764 21.1643C67.764 20.7867 67.821 20.4619 67.9349 20.1901C68.0489 19.9167 68.2002 19.7132 68.389 19.5798C68.5355 19.474 68.6869 19.4211 68.8431 19.4211C69.097 19.4211 69.3249 19.5505 69.5267 19.8093C69.779 20.1299 69.9051 20.5645 69.9051 21.113C69.9051 21.4971 69.8498 21.8234 69.7391 22.092C69.6284 22.3605 69.4868 22.5559 69.3143 22.6779C69.1434 22.7984 68.9782 22.8586 68.8187 22.8586C68.503 22.8586 68.2401 22.6722 68.0301 22.2995C67.8527 21.9854 67.764 21.607 67.764 21.1643ZM68.2425 21.2253C68.2425 21.681 68.2987 22.0529 68.411 22.341C68.5038 22.5835 68.6421 22.7048 68.826 22.7048C68.9139 22.7048 69.0051 22.6657 69.0995 22.5876C69.1939 22.5078 69.2655 22.3752 69.3143 22.1896C69.3892 21.9097 69.4266 21.515 69.4266 21.0056C69.4266 20.628 69.3876 20.313 69.3094 20.0607C69.2508 19.8736 69.1752 19.7409 69.0824 19.6628C69.0157 19.6091 68.9351 19.5822 68.8407 19.5822C68.73 19.5822 68.6315 19.6319 68.5453 19.7312C68.4281 19.8662 68.3483 20.0786 68.306 20.3684C68.2637 20.6581 68.2425 20.9437 68.2425 21.2253Z" fill="black"/>
<path d="M75.5425 22.1628L75.3105 22.8H73.3574V22.7097C73.932 22.1856 74.3364 21.7575 74.5708 21.4255C74.8052 21.0935 74.9224 20.7899 74.9224 20.5148C74.9224 20.3049 74.8581 20.1324 74.7295 19.9973C74.6009 19.8622 74.4471 19.7946 74.2681 19.7946C74.1053 19.7946 73.9588 19.8426 73.8286 19.9387C73.7 20.0331 73.6048 20.1722 73.543 20.3562H73.4526C73.4933 20.055 73.5975 19.8239 73.7651 19.6628C73.9344 19.5017 74.1452 19.4211 74.3974 19.4211C74.666 19.4211 74.8898 19.5074 75.0688 19.6799C75.2495 19.8524 75.3398 20.0559 75.3398 20.2902C75.3398 20.4579 75.3008 20.6255 75.2226 20.7932C75.1022 21.0568 74.9069 21.336 74.6367 21.6306C74.2314 22.0733 73.9783 22.3402 73.8774 22.4313H74.7417C74.9175 22.4313 75.0404 22.4248 75.1103 22.4118C75.182 22.3988 75.2462 22.3728 75.3032 22.3337C75.3602 22.293 75.4098 22.236 75.4521 22.1628H75.5425Z" fill="black"/>
<path d="M79.1706 20.1193C79.265 19.8964 79.3838 19.7246 79.527 19.6042C79.6719 19.4821 79.8517 19.4211 80.0666 19.4211C80.3319 19.4211 80.5353 19.5074 80.6769 19.6799C80.7844 19.8085 80.8381 19.946 80.8381 20.0925C80.8381 20.3334 80.6867 20.5824 80.384 20.8396C80.5874 20.9193 80.7412 21.0332 80.8454 21.1813C80.9496 21.3295 81.0016 21.5036 81.0016 21.7038C81.0016 21.9903 80.9105 22.2385 80.7282 22.4484C80.4906 22.7219 80.1463 22.8586 79.6955 22.8586C79.4725 22.8586 79.3203 22.8309 79.2389 22.7756C79.1592 22.7202 79.1193 22.6608 79.1193 22.5974C79.1193 22.5502 79.138 22.5087 79.1755 22.4729C79.2145 22.437 79.2609 22.4191 79.3146 22.4191C79.3553 22.4191 79.3968 22.4257 79.4391 22.4387C79.4668 22.4468 79.5295 22.4769 79.6271 22.529C79.7248 22.5795 79.7923 22.6096 79.8298 22.6193C79.89 22.6372 79.9543 22.6462 80.0226 22.6462C80.1886 22.6462 80.3327 22.5819 80.4548 22.4533C80.5785 22.3247 80.6403 22.1726 80.6403 21.9968C80.6403 21.8682 80.6118 21.7429 80.5549 21.6208C80.5125 21.5297 80.4662 21.4605 80.4157 21.4133C80.3457 21.3482 80.2497 21.2896 80.1276 21.2375C80.0055 21.1838 79.881 21.1569 79.7541 21.1569H79.676V21.0837C79.8045 21.0674 79.9331 21.021 80.0617 20.9445C80.1919 20.868 80.2863 20.7761 80.3449 20.6687C80.4035 20.5612 80.4328 20.4432 80.4328 20.3146C80.4328 20.147 80.3799 20.0119 80.2741 19.9094C80.1699 19.8052 80.0397 19.7531 79.8835 19.7531C79.6312 19.7531 79.4204 19.8882 79.2511 20.1584L79.1706 20.1193Z" fill="black"/>
<path d="M67.764 27.9643C67.764 27.5867 67.821 27.2619 67.9349 26.9901C68.0489 26.7167 68.2002 26.5132 68.389 26.3798C68.5355 26.274 68.6869 26.2211 68.8431 26.2211C69.097 26.2211 69.3249 26.3505 69.5267 26.6093C69.779 26.9299 69.9051 27.3645 69.9051 27.913C69.9051 28.2971 69.8498 28.6234 69.7391 28.892C69.6284 29.1605 69.4868 29.3559 69.3143 29.4779C69.1434 29.5984 68.9782 29.6586 68.8187 29.6586C68.503 29.6586 68.2401 29.4722 68.0301 29.0995C67.8527 28.7854 67.764 28.407 67.764 27.9643ZM68.2425 28.0253C68.2425 28.481 68.2987 28.8529 68.411 29.141C68.5038 29.3835 68.6421 29.5048 68.826 29.5048C68.9139 29.5048 69.0051 29.4657 69.0995 29.3876C69.1939 29.3078 69.2655 29.1752 69.3143 28.9896C69.3892 28.7097 69.4266 28.315 69.4266 27.8056C69.4266 27.428 69.3876 27.113 69.3094 26.8607C69.2508 26.6736 69.1752 26.5409 69.0824 26.4628C69.0157 26.4091 68.9351 26.3822 68.8407 26.3822C68.73 26.3822 68.6315 26.4319 68.5453 26.5312C68.4281 26.6662 68.3483 26.8786 68.306 27.1684C68.2637 27.4581 68.2425 27.7437 68.2425 28.0253Z" fill="black"/>
<path d="M75.5766 28.3793V28.726H75.1323V29.6H74.7295V28.726H73.3281V28.4135L74.8638 26.2211H75.1323V28.3793H75.5766ZM74.7295 28.3793V26.7362L73.5674 28.3793H74.7295Z" fill="black"/>
<path d="M81.0871 26.2895L80.8967 26.7045H79.9006L79.6833 27.1488C80.1146 27.2123 80.4564 27.3726 80.7087 27.6298C80.9251 27.8511 81.0334 28.1116 81.0334 28.411C81.0334 28.5852 80.9976 28.7463 80.926 28.8944C80.856 29.0425 80.7673 29.1687 80.6598 29.2729C80.5524 29.377 80.4328 29.4608 80.301 29.5243C80.1138 29.6138 79.9217 29.6586 79.7248 29.6586C79.5262 29.6586 79.3814 29.6252 79.2902 29.5585C79.2007 29.4901 79.1559 29.4153 79.1559 29.3339C79.1559 29.2883 79.1747 29.2484 79.2121 29.2143C79.2495 29.1785 79.2967 29.1605 79.3537 29.1605C79.396 29.1605 79.4326 29.1671 79.4635 29.1801C79.4961 29.1931 79.5506 29.2265 79.6271 29.2802C79.7492 29.3648 79.8729 29.4071 79.9982 29.4071C80.1886 29.4071 80.3555 29.3355 80.4987 29.1923C80.6436 29.0474 80.716 28.8716 80.716 28.6649C80.716 28.4647 80.6517 28.2784 80.5231 28.1059C80.3945 27.9317 80.2171 27.7974 79.9909 27.703C79.8135 27.6298 79.5718 27.5875 79.2658 27.5761L79.9006 26.2895H81.0871Z" fill="black"/>
<path d="M68.1693 33.4142L68.975 33.0211H69.0555V35.8165C69.0555 36.0021 69.0629 36.1176 69.0775 36.1632C69.0938 36.2088 69.1263 36.2437 69.1752 36.2682C69.224 36.2926 69.3233 36.3064 69.473 36.3097V36.4H68.2279V36.3097C68.3841 36.3064 68.4851 36.2934 68.5306 36.2706C68.5762 36.2462 68.6079 36.2145 68.6258 36.1754C68.6437 36.1347 68.6527 36.0151 68.6527 35.8165V34.0294C68.6527 33.7885 68.6446 33.6339 68.6283 33.5655C68.6169 33.5134 68.5957 33.4752 68.5648 33.4508C68.5355 33.4264 68.4997 33.4142 68.4574 33.4142C68.3972 33.4142 68.3133 33.4394 68.2059 33.4898L68.1693 33.4142Z" fill="black"/>
<path d="M75.5425 35.7628L75.3105 36.4H73.3574V36.3097C73.932 35.7856 74.3364 35.3575 74.5708 35.0255C74.8052 34.6935 74.9224 34.3899 74.9224 34.1148C74.9224 33.9049 74.8581 33.7324 74.7295 33.5973C74.6009 33.4622 74.4471 33.3946 74.2681 33.3946C74.1053 33.3946 73.9588 33.4426 73.8286 33.5387C73.7 33.6331 73.6048 33.7722 73.543 33.9562H73.4526C73.4933 33.655 73.5975 33.4239 73.7651 33.2628C73.9344 33.1017 74.1452 33.0211 74.3974 33.0211C74.666 33.0211 74.8898 33.1074 75.0688 33.2799C75.2495 33.4524 75.3398 33.6559 75.3398 33.8902C75.3398 34.0579 75.3008 34.2255 75.2226 34.3932C75.1022 34.6568 74.9069 34.936 74.6367 35.2306C74.2314 35.6733 73.9783 35.9402 73.8774 36.0313H74.7417C74.9175 36.0313 75.0404 36.0248 75.1103 36.0118C75.182 35.9988 75.2462 35.9728 75.3032 35.9337C75.3602 35.893 75.4098 35.836 75.4521 35.7628H75.5425Z" fill="black"/>
<path d="M79.5026 33.4142L80.3083 33.0211H80.3888V35.8165C80.3888 36.0021 80.3962 36.1176 80.4108 36.1632C80.4271 36.2088 80.4596 36.2437 80.5085 36.2682C80.5573 36.2926 80.6566 36.3064 80.8063 36.3097V36.4H79.5612V36.3097C79.7175 36.3064 79.8184 36.2934 79.8639 36.2706C79.9095 36.2462 79.9413 36.2145 79.9592 36.1754C79.9771 36.1347 79.986 36.0151 79.986 35.8165V34.0294C79.986 33.7885 79.9779 33.6339 79.9616 33.5655C79.9502 33.5134 79.929 33.4752 79.8981 33.4508C79.8688 33.4264 79.833 33.4142 79.7907 33.4142C79.7305 33.4142 79.6467 33.4394 79.5392 33.4898L79.5026 33.4142Z" fill="black"/>
<path d="M69.91 41.9793V42.326H69.4657V43.2H69.0629V42.326H67.6615V42.0135L69.1971 39.8211H69.4657V41.9793H69.91ZM69.0629 41.9793V40.3362L67.9007 41.9793H69.0629Z" fill="black"/>
<path d="M73.5039 40.5193C73.5983 40.2964 73.7171 40.1246 73.8603 40.0042C74.0052 39.8821 74.185 39.8211 74.3999 39.8211C74.6652 39.8211 74.8686 39.9074 75.0102 40.0799C75.1177 40.2085 75.1714 40.346 75.1714 40.4925C75.1714 40.7334 75.02 40.9824 74.7173 41.2396C74.9207 41.3193 75.0745 41.4332 75.1787 41.5813C75.2829 41.7295 75.3349 41.9036 75.3349 42.1038C75.3349 42.3903 75.2438 42.6385 75.0615 42.8484C74.8239 43.1219 74.4796 43.2586 74.0288 43.2586C73.8058 43.2586 73.6536 43.2309 73.5723 43.1756C73.4925 43.1202 73.4526 43.0608 73.4526 42.9974C73.4526 42.9502 73.4713 42.9087 73.5088 42.8729C73.5478 42.837 73.5942 42.8191 73.6479 42.8191C73.6886 42.8191 73.7301 42.8257 73.7724 42.8387C73.8001 42.8468 73.8628 42.8769 73.9604 42.929C74.0581 42.9795 74.1256 43.0096 74.1631 43.0193C74.2233 43.0372 74.2876 43.0462 74.3559 43.0462C74.522 43.0462 74.666 42.9819 74.7881 42.8533C74.9118 42.7247 74.9736 42.5726 74.9736 42.3968C74.9736 42.2682 74.9451 42.1429 74.8882 42.0208C74.8459 41.9297 74.7995 41.8605 74.749 41.8133C74.679 41.7482 74.583 41.6896 74.4609 41.6375C74.3389 41.5838 74.2143 41.5569 74.0874 41.5569H74.0093V41.4837C74.1378 41.4674 74.2664 41.421 74.395 41.3445C74.5252 41.268 74.6196 41.1761 74.6782 41.0687C74.7368 40.9612 74.7661 40.8432 74.7661 40.7146C74.7661 40.547 74.7132 40.4119 74.6074 40.3094C74.5032 40.2052 74.373 40.1531 74.2168 40.1531C73.9645 40.1531 73.7537 40.2882 73.5845 40.5584L73.5039 40.5193Z" fill="black"/>
<path d="M81.2092 42.5628L80.9772 43.2H79.0241V43.1097C79.5986 42.5856 80.0031 42.1575 80.2375 41.8255C80.4719 41.4935 80.589 41.1899 80.589 40.9148C80.589 40.7049 80.5247 40.5324 80.3962 40.3973C80.2676 40.2622 80.1138 40.1946 79.9347 40.1946C79.772 40.1946 79.6255 40.2426 79.4953 40.3387C79.3667 40.4331 79.2715 40.5722 79.2096 40.7562H79.1193C79.16 40.455 79.2642 40.2239 79.4318 40.0628C79.6011 39.9017 79.8119 39.8211 80.0641 39.8211C80.3327 39.8211 80.5565 39.9074 80.7355 40.0799C80.9162 40.2524 81.0065 40.4559 81.0065 40.6902C81.0065 40.8579 80.9675 41.0255 80.8893 41.1932C80.7689 41.4568 80.5736 41.736 80.3034 42.0306C79.8981 42.4733 79.645 42.7402 79.5441 42.8313H80.4084C80.5842 42.8313 80.707 42.8248 80.777 42.8118C80.8486 42.7988 80.9129 42.7728 80.9699 42.7337C81.0269 42.693 81.0765 42.636 81.1188 42.5628H81.2092Z" fill="black"/>
<path d="M69.7538 46.6895L69.5633 47.1045H68.5672L68.35 47.5488C68.7813 47.6123 69.1231 47.7726 69.3754 48.0298C69.5918 48.2511 69.7001 48.5116 69.7001 48.811C69.7001 48.9852 69.6643 49.1463 69.5926 49.2944C69.5227 49.4425 69.4339 49.5687 69.3265 49.6729C69.2191 49.777 69.0995 49.8608 68.9676 49.9243C68.7805 50.0138 68.5884 50.0586 68.3915 50.0586C68.1929 50.0586 68.048 50.0252 67.9569 49.9585C67.8674 49.8901 67.8226 49.8153 67.8226 49.7339C67.8226 49.6883 67.8413 49.6484 67.8788 49.6143C67.9162 49.5785 67.9634 49.5605 68.0204 49.5605C68.0627 49.5605 68.0993 49.5671 68.1302 49.5801C68.1628 49.5931 68.2173 49.6265 68.2938 49.6802C68.4159 49.7648 68.5396 49.8071 68.6649 49.8071C68.8553 49.8071 69.0222 49.7355 69.1654 49.5923C69.3102 49.4474 69.3827 49.2716 69.3827 49.0649C69.3827 48.8647 69.3184 48.6784 69.1898 48.5059C69.0612 48.3317 68.8838 48.1974 68.6576 48.103C68.4802 48.0298 68.2385 47.9875 67.9325 47.9761L68.5672 46.6895H69.7538Z" fill="black"/>
<path d="M75.4912 46.6211V46.7114C75.2764 46.7326 75.1006 46.7757 74.9639 46.8408C74.8288 46.9043 74.6945 47.002 74.561 47.1338C74.4292 47.2656 74.3193 47.4129 74.2314 47.5757C74.1452 47.7368 74.0727 47.9289 74.0141 48.1519C74.2485 47.9907 74.4837 47.9102 74.7197 47.9102C74.946 47.9102 75.1421 48.0013 75.3081 48.1836C75.4741 48.3659 75.5571 48.6003 75.5571 48.8867C75.5571 49.1634 75.4733 49.4157 75.3057 49.6436C75.1038 49.9202 74.8369 50.0586 74.5049 50.0586C74.2786 50.0586 74.0866 49.9837 73.9287 49.834C73.6195 49.5426 73.4648 49.165 73.4648 48.7012C73.4648 48.4049 73.5242 48.1234 73.6431 47.8564C73.7619 47.5895 73.9311 47.3527 74.1509 47.146C74.3722 46.9393 74.5838 46.8001 74.7856 46.7285C74.9875 46.6569 75.1754 46.6211 75.3496 46.6211H75.4912ZM73.9726 48.3301C73.9433 48.5498 73.9287 48.7272 73.9287 48.8623C73.9287 49.0186 73.9572 49.1886 74.0141 49.3726C74.0727 49.5549 74.159 49.6997 74.2729 49.8071C74.3559 49.8836 74.4569 49.9219 74.5757 49.9219C74.7173 49.9219 74.8434 49.8551 74.9541 49.7217C75.0664 49.5882 75.1225 49.3978 75.1225 49.1504C75.1225 48.8721 75.0672 48.6312 74.9565 48.4277C74.8459 48.2243 74.6888 48.1226 74.4853 48.1226C74.4235 48.1226 74.3568 48.1356 74.2851 48.1616C74.2152 48.1877 74.111 48.2438 73.9726 48.3301Z" fill="black"/>
<path d="M81.2433 48.7793V49.126H80.799V50H80.3962V49.126H78.9948V48.8135L80.5304 46.6211H80.799V48.7793H81.2433ZM80.3962 48.7793V47.1362L79.2341 48.7793H80.3962Z" fill="black"/>
<path d="M68.0863 53.4895H69.8612V53.5822L68.7577 56.8684H68.4842L69.473 53.8874H68.5624C68.3784 53.8874 68.2474 53.9094 68.1693 53.9533C68.0326 54.0282 67.9227 54.1437 67.8397 54.3L67.7689 54.2731L68.0863 53.4895Z" fill="black"/>
<path d="M74.2095 55.1325C73.9474 54.9177 73.7781 54.7451 73.7016 54.6149C73.6268 54.4847 73.5893 54.3496 73.5893 54.2097C73.5893 53.9948 73.6724 53.8101 73.8384 53.6555C74.0044 53.4992 74.2249 53.4211 74.5 53.4211C74.7669 53.4211 74.9818 53.4935 75.1445 53.6384C75.3073 53.7832 75.3887 53.9484 75.3887 54.134C75.3887 54.2577 75.3447 54.3838 75.2568 54.5124C75.1689 54.641 74.9858 54.7923 74.7075 54.9665C74.994 55.1879 75.1836 55.362 75.2764 55.489C75.4001 55.655 75.4619 55.8299 75.4619 56.0139C75.4619 56.2466 75.3732 56.446 75.1958 56.612C75.0184 56.7764 74.7856 56.8586 74.4975 56.8586C74.1834 56.8586 73.9385 56.7601 73.7627 56.5632C73.6227 56.4053 73.5527 56.2328 73.5527 56.0456C73.5527 55.8991 73.6016 55.7543 73.6992 55.611C73.7985 55.4662 73.9686 55.3067 74.2095 55.1325ZM74.5928 54.8713C74.7881 54.6955 74.9118 54.5572 74.9639 54.4562C75.0159 54.3537 75.042 54.2382 75.042 54.1096C75.042 53.9387 74.994 53.8052 74.8979 53.7092C74.8019 53.6115 74.6709 53.5627 74.5049 53.5627C74.3389 53.5627 74.2038 53.6107 74.0996 53.7067C73.9954 53.8028 73.9433 53.9151 73.9433 54.0437C73.9433 54.1283 73.9645 54.2129 74.0068 54.2976C74.0508 54.3822 74.1126 54.4628 74.1924 54.5393L74.5928 54.8713ZM74.3242 55.2253C74.1891 55.3392 74.089 55.4637 74.0239 55.5988C73.9588 55.7323 73.9263 55.8771 73.9263 56.0334C73.9263 56.2434 73.9832 56.4118 74.0972 56.5388C74.2127 56.6641 74.3592 56.7268 74.5366 56.7268C74.7124 56.7268 74.8532 56.6771 74.959 56.5778C75.0648 56.4785 75.1177 56.3581 75.1177 56.2165C75.1177 56.0993 75.0867 55.9943 75.0249 55.9016C74.9093 55.729 74.6758 55.5036 74.3242 55.2253Z" fill="black"/>
<path d="M79.8761 55.1325C79.6141 54.9177 79.4448 54.7451 79.3683 54.6149C79.2935 54.4847 79.256 54.3496 79.256 54.2097C79.256 53.9948 79.339 53.8101 79.5051 53.6555C79.6711 53.4992 79.8916 53.4211 80.1667 53.4211C80.4336 53.4211 80.6484 53.4935 80.8112 53.6384C80.974 53.7832 81.0553 53.9484 81.0553 54.134C81.0553 54.2577 81.0114 54.3838 80.9235 54.5124C80.8356 54.641 80.6525 54.7923 80.3742 54.9665C80.6607 55.1879 80.8503 55.362 80.943 55.489C81.0667 55.655 81.1286 55.8299 81.1286 56.0139C81.1286 56.2466 81.0399 56.446 80.8625 56.612C80.6851 56.7764 80.4523 56.8586 80.1642 56.8586C79.8501 56.8586 79.6052 56.7601 79.4294 56.5632C79.2894 56.4053 79.2194 56.2328 79.2194 56.0456C79.2194 55.8991 79.2682 55.7543 79.3659 55.611C79.4652 55.4662 79.6353 55.3067 79.8761 55.1325ZM80.2594 54.8713C80.4548 54.6955 80.5785 54.5572 80.6305 54.4562C80.6826 54.3537 80.7087 54.2382 80.7087 54.1096C80.7087 53.9387 80.6607 53.8052 80.5646 53.7092C80.4686 53.6115 80.3376 53.5627 80.1716 53.5627C80.0055 53.5627 79.8705 53.6107 79.7663 53.7067C79.6621 53.8028 79.61 53.9151 79.61 54.0437C79.61 54.1283 79.6312 54.2129 79.6735 54.2976C79.7175 54.3822 79.7793 54.4628 79.8591 54.5393L80.2594 54.8713ZM79.9909 55.2253C79.8558 55.3392 79.7557 55.4637 79.6906 55.5988C79.6255 55.7323 79.5929 55.8771 79.5929 56.0334C79.5929 56.2434 79.6499 56.4118 79.7638 56.5388C79.8794 56.6641 80.0259 56.7268 80.2033 56.7268C80.3791 56.7268 80.5199 56.6771 80.6257 56.5778C80.7315 56.4785 80.7844 56.3581 80.7844 56.2165C80.7844 56.0993 80.7534 55.9943 80.6916 55.9016C80.576 55.729 80.3425 55.5036 79.9909 55.2253Z" fill="black"/>
<line x1="66" y1="17.8067" x2="83" y2="17.8067" stroke="white" stroke-width="0.1"/>
<line x1="66" y1="24.6067" x2="83" y2="24.6067" stroke="white" stroke-width="0.1"/>
<line x1="66" y1="31.4067" x2="83" y2="31.4067" stroke="white" stroke-width="0.1"/>
<line x1="66" y1="38.2067" x2="83" y2="38.2067" stroke="white" stroke-width="0.1"/>
<line x1="66" y1="45.0067" x2="83" y2="45.0067" stroke="white" stroke-width="0.1"/>
<line x1="66" y1="51.8067" x2="83" y2="51.8067" stroke="white" stroke-width="0.1"/>
<rect x="23.4" y="11.9" width="3.7" height="45.2" stroke="black" stroke-width="0.2" stroke-dasharray="0.5 1"/>
<rect x="47.65" y="11.9" width="3.7" height="45.2" stroke="black" stroke-width="0.2" stroke-dasharray="0.5 1"/>
<rect x="71.9" y="11.9" width="3.7" height="45.2" stroke="black" stroke-width="0.2" stroke-dasharray="0.5 1"/>
</svg>
