<svg width="100" height="70" viewBox="0 0 100 70" fill="none" xmlns="http://www.w3.org/2000/svg">
<rect width="100" height="70" fill="white"/>
<rect width="100" height="70" fill="#9AADF0"/>
<circle cx="36" cy="7" r="7" fill="#6887F4"/>
<rect y="14" width="18" height="14" fill="#6887F4"/>
<rect y="42" width="36" height="14" fill="#6887F4"/>
<rect y="56" width="75" height="14" fill="#6887F4"/>
<circle cx="40" cy="35" r="7" fill="#6887F4"/>
<circle cx="75" cy="63" r="7" fill="#6887F4"/>
<rect width="36" height="14" fill="#6887F4"/>
<rect y="28" width="40" height="14" fill="#6887F4"/>
<circle cx="18" cy="21" r="7" fill="#9AADF0"/>
<circle cx="35" cy="49" r="7" fill="#9AADF0"/>
<path d="M27 10H52L65 24.6451V61H27V10Z" fill="white" fill-opacity="0.7"/>
<path d="M70 38C68.5 43.5 69.5 43.5 65 46C65 46 65 43.5228 65 38V30C70 32.5 69 32.5 70 38Z" fill="white" fill-opacity="0.7"/>
<rect x="50" y="36.5" width="16" height="3" rx="1.5" fill="black"/>
<rect x="51" y="42" width="15" height="3" rx="1.5" fill="black"/>
<path d="M51 34C51 32.3431 52.3431 31 54 31H64.5C65.3284 31 66 31.6716 66 32.5V32.5C66 33.3284 65.3284 34 64.5 34H51V34Z" fill="black"/>
<path d="M28.1179 62.5807H63.6403C65.0596 62.5807 66.1882 61.4009 66.1882 60.0386V47.3446V47.2876C66.3079 47.2306 66.3649 47.1679 66.4846 47.1109L79.9822 60.6371C80.1589 60.8138 80.3983 60.8708 80.575 60.8708C80.8144 60.8708 81.0481 60.8138 81.1678 60.6371C81.5212 60.2837 81.5212 59.7535 81.1678 59.4571L67.7842 46.045C69.916 44.0386 71.2783 41.2 71.2783 38.0137C71.2783 34.1719 69.2662 30.7462 66.1882 28.7968C66.1882 28.7398 66.1882 28.7398 66.1882 28.7398V24.4876C66.1882 24.4876 66.1882 24.4876 66.1882 24.4306C66.1882 24.3736 66.1882 24.3736 66.1882 24.3109C66.1312 24.1912 66.0685 24.0772 66.0115 24.0145C66.0115 23.9575 66.0115 23.9575 66.0115 23.9575L52.4512 8.71001C52.3315 8.59031 52.2118 8.53331 52.0351 8.47631H51.9781C51.9211 8.47631 51.8584 8.41931 51.8014 8.41931H28.1179C26.7556 8.41931 25.57 9.59921 25.57 10.9558V60.0443C25.57 61.4009 26.7556 62.5807 28.1179 62.5807ZM69.6196 38.008C69.6196 43.1494 65.4187 47.3389 60.2659 47.3389C55.1758 47.3389 50.9692 43.1437 50.9692 38.008C50.9692 32.9293 55.1701 28.7341 60.2659 28.7341C65.413 28.7341 69.6196 32.9293 69.6196 38.008ZM52.6849 11.4859L63.4579 23.6554H53.5171C53.1637 23.6554 52.6906 22.9486 52.6906 22.4128V11.4859H52.6849ZM27.2857 10.9558C27.2857 10.4827 27.6391 10.1293 28.1122 10.1293H50.9635V22.4185C50.9635 23.7751 52.0864 25.3711 53.5114 25.3711H64.5238V27.9133C63.2185 27.3205 61.7992 27.0298 60.2602 27.0298C57.1822 27.0298 54.3379 28.3294 52.3885 30.4555H34.9237C34.4506 30.4555 34.0345 30.8089 34.0345 31.282C34.0345 31.7551 34.4506 32.1085 34.9237 32.1085H51.0262C50.08 33.5848 49.4872 35.3575 49.3105 37.1872H34.9237C34.4506 37.1872 34.0345 37.6033 34.0345 38.0137C34.0345 38.4868 34.4506 38.8972 34.9237 38.8972H49.3105C49.4872 40.7269 50.08 42.4426 51.0262 43.9759H34.9237C34.4506 43.9759 34.0345 44.3293 34.0345 44.8024C34.0345 45.2755 34.4506 45.6289 34.9237 45.6289H52.2688H52.3258C54.3379 47.698 57.1822 49.0546 60.2602 49.0546C61.7992 49.0546 63.2185 48.7012 64.5238 48.1711V60.0443C64.5238 60.5174 64.1077 60.8708 63.6346 60.8708H28.1179C27.6448 60.8708 27.2914 60.5174 27.2914 60.0443L27.2857 10.9558ZM34.9237 25.3711H45.0469C45.52 25.3711 45.8734 24.955 45.8734 24.4876C45.8734 24.0202 45.52 23.6611 45.0469 23.6611H34.9237C34.4506 23.6611 34.0345 24.0145 34.0345 24.4876C34.0345 24.955 34.4506 25.3711 34.9237 25.3711ZM34.9237 52.4233H56.8915C57.3646 52.4233 57.718 52.0072 57.718 51.5968C57.718 51.1237 57.3646 50.7133 56.8915 50.7133H34.9237C34.4506 50.7133 34.0345 51.1294 34.0345 51.5968C34.0345 52.0072 34.4506 52.4233 34.9237 52.4233Z" fill="black"/>
</svg>
