<svg width="100" height="70" viewBox="0 0 100 70" fill="none" xmlns="http://www.w3.org/2000/svg">
<rect width="100" height="70" fill="white"/>
<rect width="100" height="70" fill="#FA9C9C"/>
<circle cx="47" cy="7" r="7" fill="#FF8080"/>
<rect y="14" width="32" height="14" fill="#FF8080"/>
<rect y="42" width="49" height="14" fill="#FF8080"/>
<rect y="56" width="84" height="14" fill="#FF8080"/>
<circle cx="65" cy="35" r="7" fill="#FF8080"/>
<circle cx="84" cy="63" r="7" fill="#FF8080"/>
<rect width="47" height="14" fill="#FF8080"/>
<rect y="28" width="65" height="14" fill="#FF8080"/>
<circle cx="31" cy="21" r="7" fill="#FA9C9C"/>
<circle cx="49" cy="49" r="7" fill="#FA9C9C"/>
<path opacity="0.522901" fill-rule="evenodd" clip-rule="evenodd" d="M78.5519 26.5C78.5519 37.7734 69.0556 46.9122 57.3412 46.9122C45.6268 46.9122 36.1304 37.7734 36.1304 26.5C36.1304 15.2267 45.6268 6.0878 57.3412 6.0878C69.0556 6.0878 78.5519 15.2267 78.5519 26.5Z" fill="#0100D3" fill-opacity="0.417778" stroke="black" stroke-opacity="0.991112" stroke-width="0.5" stroke-linecap="round" stroke-linejoin="round"/>
<path opacity="0.522901" fill-rule="evenodd" clip-rule="evenodd" d="M93.8698 27.8408C93.8698 36.9937 86.1595 44.4137 76.6485 44.4137C67.1374 44.4137 59.4272 36.9937 59.4272 27.8408C59.4272 18.6878 67.1374 11.2679 76.6485 11.2679C86.1595 11.2679 93.8698 18.6878 93.8698 27.8408Z" fill="#FC8621" fill-opacity="0.737778" stroke="black" stroke-opacity="0.991112" stroke-width="0.5" stroke-linecap="round" stroke-linejoin="round"/>
<path d="M47.3629 20.9161H45.8248L45.5553 21.543C45.4889 21.6973 45.4557 21.8126 45.4557 21.8887C45.4557 21.9493 45.484 22.003 45.5406 22.0499C45.5992 22.0948 45.7242 22.1241 45.9156 22.1378V22.2462H44.6646V22.1378C44.8307 22.1085 44.9381 22.0704 44.9869 22.0235C45.0865 21.9297 45.1969 21.7393 45.318 21.4522L46.7154 18.1827H46.818L48.2008 21.4874C48.3121 21.753 48.4127 21.9258 48.5025 22.0059C48.5943 22.084 48.7213 22.128 48.8834 22.1378V22.2462H47.316V22.1378C47.4742 22.1299 47.5807 22.1036 47.6353 22.0587C47.692 22.0137 47.7203 21.959 47.7203 21.8946C47.7203 21.8087 47.6812 21.6729 47.6031 21.4874L47.3629 20.9161ZM47.2809 20.6993L46.607 19.0938L45.9156 20.6993H47.2809Z" fill="black"/>
<path d="M68.2633 28.0167C68.2633 27.4477 68.7427 26.9863 69.334 26.9863C69.9254 26.9863 70.4047 27.4477 70.4047 28.0167C70.4047 28.0216 70.4047 28.0264 70.4046 28.0313" stroke="black" stroke-opacity="0.991112" stroke-width="0.5" stroke-linecap="round" stroke-linejoin="round"/>
<path d="M70.4083 28.0397V30.3874" stroke="black" stroke-width="0.5"/>
<path d="M68.27 28.0586V30.4064" stroke="black" stroke-width="0.5"/>
<path d="M65.2608 29.1692H63.9791L63.7545 29.6917C63.6992 29.8203 63.6715 29.9163 63.6715 29.9798C63.6715 30.0302 63.6951 30.075 63.7423 30.1141C63.7911 30.1515 63.8953 30.1759 64.0548 30.1873V30.2776H63.0123V30.1873C63.1507 30.1629 63.2402 30.1312 63.2809 30.0921C63.3639 30.014 63.4558 29.8553 63.5567 29.616L64.7213 26.8914H64.8067L65.9591 29.6453C66.0519 29.8667 66.1357 30.0107 66.2106 30.0774C66.287 30.1425 66.3928 30.1792 66.5279 30.1873V30.2776H65.2218V30.1873C65.3536 30.1808 65.4423 30.1588 65.4879 30.1214C65.5351 30.084 65.5587 30.0384 65.5587 29.9847C65.5587 29.9131 65.5261 29.7999 65.461 29.6453L65.2608 29.1692ZM65.1925 28.9886L64.631 27.6507L64.0548 28.9886H65.1925Z" fill="black"/>
<path d="M74.5124 28.58C74.7419 28.6288 74.9136 28.7069 75.0275 28.8143C75.1854 28.9641 75.2643 29.1472 75.2643 29.3636C75.2643 29.528 75.2123 29.6859 75.1081 29.8373C75.0039 29.987 74.8607 30.0969 74.6784 30.1669C74.4977 30.2352 74.2211 30.2694 73.8483 30.2694H72.2858V30.1791H72.4103C72.5487 30.1791 72.648 30.1351 72.7082 30.0472C72.7456 29.9903 72.7643 29.869 72.7643 29.6835V27.5448C72.7643 27.3397 72.7407 27.2103 72.6935 27.1566C72.6301 27.085 72.5357 27.0492 72.4103 27.0492H72.2858V26.9589H73.7165C73.9834 26.9589 74.1975 26.9784 74.3586 27.0175C74.6027 27.076 74.7891 27.1802 74.9177 27.33C75.0462 27.4781 75.1105 27.649 75.1105 27.8426C75.1105 28.0087 75.0601 28.1576 74.9592 28.2894C74.8583 28.4196 74.7093 28.5165 74.5124 28.58ZM73.2331 28.4481C73.2933 28.4595 73.3617 28.4685 73.4382 28.475C73.5163 28.4799 73.6017 28.4823 73.6945 28.4823C73.9322 28.4823 74.1104 28.4571 74.2292 28.4066C74.3496 28.3545 74.4416 28.2756 74.5051 28.1698C74.5685 28.064 74.6003 27.9484 74.6003 27.8231C74.6003 27.6294 74.5213 27.4642 74.3635 27.3275C74.2056 27.1908 73.9753 27.1224 73.6725 27.1224C73.5098 27.1224 73.3633 27.1403 73.2331 27.1761V28.4481ZM73.2331 30.0301C73.4219 30.0741 73.6083 30.0961 73.7922 30.0961C74.0868 30.0961 74.3114 30.0301 74.466 29.8983C74.6206 29.7648 74.6979 29.6005 74.6979 29.4051C74.6979 29.2766 74.6629 29.1529 74.593 29.0341C74.523 28.9152 74.409 28.8216 74.2512 28.7533C74.0933 28.6849 73.898 28.6508 73.6652 28.6508C73.5643 28.6508 73.478 28.6524 73.4064 28.6556C73.3348 28.6589 73.277 28.6646 73.2331 28.6727V30.0301Z" fill="black"/>
<path d="M84.4314 35.7641C84.7068 35.8227 84.9128 35.9165 85.0495 36.0454C85.239 36.2251 85.3337 36.4448 85.3337 36.7046C85.3337 36.9018 85.2712 37.0913 85.1462 37.2729C85.0212 37.4526 84.8493 37.5845 84.6306 37.6684C84.4138 37.7505 84.0818 37.7915 83.6345 37.7915H81.7595V37.6831H81.9089C82.0749 37.6831 82.1941 37.6304 82.2663 37.5249C82.3113 37.4565 82.3337 37.311 82.3337 37.0884V34.522C82.3337 34.2759 82.3054 34.1206 82.2488 34.0561C82.1726 33.9702 82.0593 33.9272 81.9089 33.9272H81.7595V33.8188H83.4763C83.7966 33.8188 84.0534 33.8423 84.2468 33.8891C84.5398 33.9595 84.7634 34.0845 84.9177 34.2641C85.072 34.4419 85.1491 34.647 85.1491 34.8794C85.1491 35.0786 85.0886 35.2573 84.9675 35.4155C84.8464 35.5718 84.6677 35.688 84.4314 35.7641ZM82.8962 35.6059C82.9685 35.6196 83.0505 35.6304 83.1423 35.6382C83.2361 35.644 83.3386 35.647 83.4499 35.647C83.7351 35.647 83.9489 35.6167 84.0915 35.5561C84.2361 35.4936 84.3464 35.3989 84.4226 35.272C84.4988 35.145 84.5368 35.0063 84.5368 34.8559C84.5368 34.6235 84.4421 34.4253 84.2527 34.2612C84.0632 34.0972 83.7868 34.0151 83.4236 34.0151C83.2282 34.0151 83.0525 34.0366 82.8962 34.0796V35.6059ZM82.8962 37.5044C83.1228 37.5571 83.3464 37.5835 83.5671 37.5835C83.9206 37.5835 84.1902 37.5044 84.3757 37.3462C84.5613 37.186 84.654 36.9888 84.654 36.7544C84.654 36.6001 84.612 36.4516 84.528 36.3091C84.4441 36.1665 84.3073 36.0542 84.1179 35.9722C83.9284 35.8901 83.6941 35.8491 83.4148 35.8491C83.2937 35.8491 83.1902 35.8511 83.1042 35.855C83.0183 35.8589 82.9489 35.8657 82.8962 35.8755V37.5044Z" fill="black"/>
<path d="M43 50C43 56.6274 35.6127 62 26.5 62C17.3873 62 10 56.6274 10 50C10 43.3726 17.3873 38 26.5 38C35.6127 38 43 43.3726 43 50Z" fill="#E6F0FA" stroke="black" stroke-width="0.4" stroke-linecap="round" stroke-linejoin="round"/>
<path d="M30.9696 52.3453L26.5764 50.7309L30.3837 48.2356L30.9696 52.3453Z" fill="#3CB371" stroke="black" stroke-width="0.4" stroke-miterlimit="3.92857" stroke-linecap="round" stroke-linejoin="round"/>
<path d="M37.9921 49.3518L35.6122 45.7629L38.7625 45.3895L37.9921 49.3518Z" fill="#B50000" stroke="black" stroke-width="0.4" stroke-miterlimit="3.92857" stroke-linecap="round" stroke-linejoin="round"/>
<path d="M15.2907 43.1625L15.7573 45.3835L19.4704 46.3062L14.3803 46.2782L15.2907 43.1625V43.1625Z" fill="#FFDD77" stroke="black" stroke-width="0.4" stroke-miterlimit="3.92857" stroke-linecap="round" stroke-linejoin="round"/>
<path d="M16.9972 52.0866L19.9126 51.358L21.7372 48.849L14.7092 49.9633L16.9972 52.0866Z" fill="#DDA0DD" stroke="black" stroke-width="0.4" stroke-miterlimit="3.92857" stroke-linecap="round" stroke-linejoin="round"/>
<path d="M21.0474 40.9446L24.7397 44.4762L23.3453 45.5746L19.653 42.043L21.0474 40.9446Z" fill="#364E59" stroke="black" stroke-width="0.4" stroke-miterlimit="3.92857" stroke-linecap="round" stroke-linejoin="round"/>
<path d="M32.711 43.4573L29.3325 42.1173L27.7888 45.0498L31.1673 46.3898L32.711 43.4573Z" fill="#9ADE00" stroke="black" stroke-width="0.4" stroke-miterlimit="3.92857" stroke-linecap="round" stroke-linejoin="round"/>
<path d="M27.5532 58.8119L25.5727 56.7798L27.1873 54.5169L30.1656 55.1505L30.3917 57.8049L27.5532 58.8119Z" fill="#FD7118" stroke="black" stroke-width="0.4" stroke-miterlimit="3.92857" stroke-linecap="round" stroke-linejoin="round"/>
<path d="M40.1078 54.4305C40.0995 54.446 37.3225 56.9697 37.3058 56.9769C37.2891 56.9842 34.5044 56.8719 34.496 56.8636C34.4877 56.8554 34.48 54.2193 34.4883 54.2039C34.4966 54.1884 37.2737 51.6647 37.2903 51.6574C37.307 51.6502 40.0917 51.7625 40.1001 51.7708C40.1085 51.779 40.1161 54.415 40.1078 54.4305V54.4305Z" fill="#4682B4" stroke="black" stroke-width="0.4" stroke-linecap="round" stroke-linejoin="round"/>
<path d="M20.6126 58.7304C20.6016 58.7348 18.3565 58.4704 18.3465 58.4635C18.3366 58.4567 17.123 56.343 17.1216 56.3301C17.1202 56.3172 17.852 53.9459 17.8603 53.9367C17.8685 53.9274 19.9946 53.0842 20.0062 53.0855C20.0179 53.0869 21.9373 54.4067 21.9436 54.4176C21.9499 54.4286 22.2173 56.9175 22.2135 56.9298C22.2097 56.9422 20.6237 58.7261 20.6126 58.7304V58.7304Z" fill="#FF2A2A" stroke="black" stroke-width="0.4" stroke-linecap="round" stroke-linejoin="round"/>
</svg>
