<svg width="100" height="70" viewBox="0 0 100 70" fill="none" xmlns="http://www.w3.org/2000/svg">
<rect width="100" height="70" fill="white"/>
<rect width="100" height="70" fill="#FA9C9C"/>
<circle cx="47" cy="7" r="7" fill="#FF8080"/>
<rect y="14" width="32" height="14" fill="#FF8080"/>
<rect y="42" width="49" height="14" fill="#FF8080"/>
<rect y="56" width="84" height="14" fill="#FF8080"/>
<circle cx="65" cy="35" r="7" fill="#FF8080"/>
<circle cx="84" cy="63" r="7" fill="#FF8080"/>
<rect width="47" height="14" fill="#FF8080"/>
<rect y="28" width="65" height="14" fill="#FF8080"/>
<circle cx="31" cy="21" r="7" fill="#FA9C9C"/>
<circle cx="49" cy="49" r="7" fill="#FA9C9C"/>
<rect x="20" y="15" width="59" height="8" fill="#A4AC45" fill-opacity="0.5"/>
<rect x="20" y="24" width="59" height="31" fill="#9FD6E7" fill-opacity="0.5"/>
<line x1="19.5" y1="14" x2="19.5" y2="56" stroke="black"/>
<line x1="34.5" y1="14" x2="34.5" y2="56" stroke="black"/>
<line x1="49.5" y1="14" x2="49.5" y2="56" stroke="black"/>
<line x1="79.5" y1="14" x2="79.5" y2="56" stroke="black"/>
<path d="M25.7451 17.9858L26.4336 17.7075H26.5264V18.23C26.6419 18.033 26.7575 17.8955 26.873 17.8174C26.9902 17.7376 27.1131 17.6978 27.2417 17.6978C27.4663 17.6978 27.6535 17.7856 27.8032 17.9614C27.9871 18.1763 28.0791 18.4562 28.0791 18.8013C28.0791 19.187 27.9684 19.506 27.7471 19.7583C27.5648 19.965 27.3353 20.0684 27.0586 20.0684C26.9382 20.0684 26.834 20.0513 26.7461 20.0171C26.681 19.9927 26.6077 19.9438 26.5264 19.8706V20.5518C26.5264 20.7048 26.5353 20.8016 26.5532 20.8423C26.5728 20.8846 26.6053 20.918 26.6509 20.9424C26.6981 20.9668 26.7827 20.979 26.9048 20.979V21.0693H25.7329V20.979H25.7939C25.8835 20.9806 25.96 20.9635 26.0234 20.9277C26.0544 20.9098 26.078 20.8805 26.0942 20.8398C26.1121 20.8008 26.1211 20.6999 26.1211 20.5371V18.4229C26.1211 18.278 26.1146 18.186 26.1016 18.147C26.0885 18.1079 26.0674 18.0786 26.0381 18.0591C26.0104 18.0396 25.9722 18.0298 25.9233 18.0298C25.8843 18.0298 25.8346 18.0412 25.7744 18.064L25.7451 17.9858ZM26.5264 18.374V19.209C26.5264 19.3896 26.5337 19.5085 26.5483 19.5654C26.5711 19.6598 26.6265 19.7428 26.7144 19.8145C26.8039 19.8861 26.9162 19.9219 27.0513 19.9219C27.214 19.9219 27.3459 19.8584 27.4468 19.7314C27.5786 19.5654 27.6445 19.3319 27.6445 19.0308C27.6445 18.689 27.5697 18.4261 27.4199 18.2422C27.3158 18.1152 27.1921 18.0518 27.0488 18.0518C26.9707 18.0518 26.8934 18.0713 26.8169 18.1104C26.7583 18.1396 26.6615 18.2275 26.5264 18.374Z" fill="black"/>
<path d="M59.2451 17.9858L59.9336 17.7075H60.0264V18.23C60.1419 18.033 60.2575 17.8955 60.373 17.8174C60.4902 17.7376 60.6131 17.6978 60.7417 17.6978C60.9663 17.6978 61.1535 17.7856 61.3032 17.9614C61.4871 18.1763 61.5791 18.4562 61.5791 18.8013C61.5791 19.187 61.4684 19.506 61.2471 19.7583C61.0648 19.965 60.8353 20.0684 60.5586 20.0684C60.4382 20.0684 60.334 20.0513 60.2461 20.0171C60.181 19.9927 60.1077 19.9438 60.0264 19.8706V20.5518C60.0264 20.7048 60.0353 20.8016 60.0532 20.8423C60.0728 20.8846 60.1053 20.918 60.1509 20.9424C60.1981 20.9668 60.2827 20.979 60.4048 20.979V21.0693H59.2329V20.979H59.2939C59.3835 20.9806 59.46 20.9635 59.5234 20.9277C59.5544 20.9098 59.578 20.8805 59.5942 20.8398C59.6121 20.8008 59.6211 20.6999 59.6211 20.5371V18.4229C59.6211 18.278 59.6146 18.186 59.6016 18.147C59.5885 18.1079 59.5674 18.0786 59.5381 18.0591C59.5104 18.0396 59.4722 18.0298 59.4233 18.0298C59.3843 18.0298 59.3346 18.0412 59.2744 18.064L59.2451 17.9858ZM60.0264 18.374V19.209C60.0264 19.3896 60.0337 19.5085 60.0483 19.5654C60.0711 19.6598 60.1265 19.7428 60.2144 19.8145C60.3039 19.8861 60.4162 19.9219 60.5513 19.9219C60.714 19.9219 60.8459 19.8584 60.9468 19.7314C61.0786 19.5654 61.1445 19.3319 61.1445 19.0308C61.1445 18.689 61.0697 18.4261 60.9199 18.2422C60.8158 18.1152 60.6921 18.0518 60.5488 18.0518C60.4707 18.0518 60.3934 18.0713 60.3169 18.1104C60.2583 18.1396 60.1615 18.2275 60.0264 18.374Z" fill="black"/>
<path d="M28.3647 25.6895L28.4014 26.4658H28.3086C28.2907 26.3291 28.2663 26.2314 28.2354 26.1729C28.1849 26.0785 28.1174 26.0093 28.0327 25.9653C27.9497 25.9198 27.8398 25.897 27.7031 25.897H27.2368V28.4263C27.2368 28.6297 27.2588 28.7567 27.3027 28.8071C27.3646 28.8755 27.4598 28.9097 27.5884 28.9097H27.7031V29H26.2993V28.9097H26.4165C26.5565 28.9097 26.6558 28.8674 26.7144 28.7827C26.7502 28.7306 26.7681 28.6118 26.7681 28.4263V25.897H26.3701C26.2155 25.897 26.1056 25.9084 26.0405 25.9312C25.9559 25.9621 25.8835 26.0215 25.8232 26.1094C25.763 26.1973 25.7272 26.3161 25.7158 26.4658H25.623L25.6621 25.6895H28.3647Z" fill="black"/>
<path d="M43.3647 25.6895L43.4014 26.4658H43.3086C43.2907 26.3291 43.2663 26.2314 43.2354 26.1729C43.1849 26.0785 43.1174 26.0093 43.0327 25.9653C42.9497 25.9198 42.8398 25.897 42.7031 25.897H42.2368V28.4263C42.2368 28.6297 42.2588 28.7567 42.3027 28.8071C42.3646 28.8755 42.4598 28.9097 42.5884 28.9097H42.7031V29H41.2993V28.9097H41.4165C41.5565 28.9097 41.6558 28.8674 41.7144 28.7827C41.7502 28.7306 41.7681 28.6118 41.7681 28.4263V25.897H41.3701C41.2155 25.897 41.1056 25.9084 41.0405 25.9312C40.9559 25.9621 40.8835 26.0215 40.8232 26.1094C40.763 26.1973 40.7272 26.3161 40.7158 26.4658H40.623L40.6621 25.6895H43.3647Z" fill="black"/>
<path d="M28.3647 33.6895L28.4014 34.4658H28.3086C28.2907 34.3291 28.2663 34.2314 28.2354 34.1729C28.1849 34.0785 28.1174 34.0093 28.0327 33.9653C27.9497 33.9198 27.8398 33.897 27.7031 33.897H27.2368V36.4263C27.2368 36.6297 27.2588 36.7567 27.3027 36.8071C27.3646 36.8755 27.4598 36.9097 27.5884 36.9097H27.7031V37H26.2993V36.9097H26.4165C26.5565 36.9097 26.6558 36.8674 26.7144 36.7827C26.7502 36.7306 26.7681 36.6118 26.7681 36.4263V33.897H26.3701C26.2155 33.897 26.1056 33.9084 26.0405 33.9312C25.9559 33.9621 25.8835 34.0215 25.8232 34.1094C25.763 34.1973 25.7272 34.3161 25.7158 34.4658H25.623L25.6621 33.6895H28.3647Z" fill="black"/>
<path d="M26.6313 41.8701V43.1714H27.2344C27.3727 43.1714 27.4736 43.1413 27.5371 43.0811C27.6022 43.0192 27.6453 42.8979 27.6665 42.7173H27.7568V43.8379H27.6665C27.6649 43.7093 27.6478 43.6149 27.6152 43.5547C27.5843 43.4945 27.5404 43.4497 27.4834 43.4204C27.4281 43.3895 27.3451 43.374 27.2344 43.374H26.6313V44.4141C26.6313 44.5817 26.6419 44.6924 26.6631 44.7461C26.6794 44.7868 26.7135 44.8218 26.7656 44.8511C26.8372 44.8901 26.9121 44.9097 26.9902 44.9097H27.1099V45H25.689V44.9097H25.8062C25.9429 44.9097 26.0422 44.8698 26.104 44.79C26.1431 44.738 26.1626 44.6126 26.1626 44.4141V42.2754C26.1626 42.1077 26.152 41.9971 26.1309 41.9434C26.1146 41.9027 26.0812 41.8677 26.0308 41.8384C25.9608 41.7993 25.8859 41.7798 25.8062 41.7798H25.689V41.6895H28.1523L28.1841 42.417H28.0986C28.0563 42.2624 28.0067 42.1493 27.9497 42.0776C27.8944 42.0044 27.8252 41.9515 27.7422 41.9189C27.6608 41.8864 27.5339 41.8701 27.3613 41.8701H26.6313Z" fill="black"/>
<path d="M26.6313 49.8701V51.1714H27.2344C27.3727 51.1714 27.4736 51.1413 27.5371 51.0811C27.6022 51.0192 27.6453 50.8979 27.6665 50.7173H27.7568V51.8379H27.6665C27.6649 51.7093 27.6478 51.6149 27.6152 51.5547C27.5843 51.4945 27.5404 51.4497 27.4834 51.4204C27.4281 51.3895 27.3451 51.374 27.2344 51.374H26.6313V52.4141C26.6313 52.5817 26.6419 52.6924 26.6631 52.7461C26.6794 52.7868 26.7135 52.8218 26.7656 52.8511C26.8372 52.8901 26.9121 52.9097 26.9902 52.9097H27.1099V53H25.689V52.9097H25.8062C25.9429 52.9097 26.0422 52.8698 26.104 52.79C26.1431 52.738 26.1626 52.6126 26.1626 52.4141V50.2754C26.1626 50.1077 26.152 49.9971 26.1309 49.9434C26.1146 49.9027 26.0812 49.8677 26.0308 49.8384C25.9608 49.7993 25.8859 49.7798 25.8062 49.7798H25.689V49.6895H28.1523L28.1841 50.417H28.0986C28.0563 50.2624 28.0067 50.1493 27.9497 50.0776C27.8944 50.0044 27.8252 49.9515 27.7422 49.9189C27.6608 49.8864 27.5339 49.8701 27.3613 49.8701H26.6313Z" fill="black"/>
<path d="M66.3647 25.6895L66.4014 26.4658H66.3086C66.2907 26.3291 66.2663 26.2314 66.2354 26.1729C66.1849 26.0785 66.1174 26.0093 66.0327 25.9653C65.9497 25.9198 65.8398 25.897 65.7031 25.897H65.2368V28.4263C65.2368 28.6297 65.2588 28.7567 65.3027 28.8071C65.3646 28.8755 65.4598 28.9097 65.5884 28.9097H65.7031V29H64.2993V28.9097H64.4165C64.5565 28.9097 64.6558 28.8674 64.7144 28.7827C64.7502 28.7306 64.7681 28.6118 64.7681 28.4263V25.897H64.3701C64.2155 25.897 64.1056 25.9084 64.0405 25.9312C63.9559 25.9621 63.8835 26.0215 63.8232 26.1094C63.763 26.1973 63.7272 26.3161 63.7158 26.4658H63.623L63.6621 25.6895H66.3647Z" fill="black"/>
<path d="M64.6313 33.8701V35.1714H65.2344C65.3727 35.1714 65.4736 35.1413 65.5371 35.0811C65.6022 35.0192 65.6453 34.8979 65.6665 34.7173H65.7568V35.8379H65.6665C65.6649 35.7093 65.6478 35.6149 65.6152 35.5547C65.5843 35.4945 65.5404 35.4497 65.4834 35.4204C65.4281 35.3895 65.3451 35.374 65.2344 35.374H64.6313V36.4141C64.6313 36.5817 64.6419 36.6924 64.6631 36.7461C64.6794 36.7868 64.7135 36.8218 64.7656 36.8511C64.8372 36.8901 64.9121 36.9097 64.9902 36.9097H65.1099V37H63.689V36.9097H63.8062C63.9429 36.9097 64.0422 36.8698 64.104 36.79C64.1431 36.738 64.1626 36.6126 64.1626 36.4141V34.2754C64.1626 34.1077 64.152 33.9971 64.1309 33.9434C64.1146 33.9027 64.0812 33.8677 64.0308 33.8384C63.9608 33.7993 63.8859 33.7798 63.8062 33.7798H63.689V33.6895H66.1523L66.1841 34.417H66.0986C66.0563 34.2624 66.0067 34.1493 65.9497 34.0776C65.8944 34.0044 65.8252 33.9515 65.7422 33.9189C65.6608 33.8864 65.5339 33.8701 65.3613 33.8701H64.6313Z" fill="black"/>
<path d="M64.6313 41.8701V43.1714H65.2344C65.3727 43.1714 65.4736 43.1413 65.5371 43.0811C65.6022 43.0192 65.6453 42.8979 65.6665 42.7173H65.7568V43.8379H65.6665C65.6649 43.7093 65.6478 43.6149 65.6152 43.5547C65.5843 43.4945 65.5404 43.4497 65.4834 43.4204C65.4281 43.3895 65.3451 43.374 65.2344 43.374H64.6313V44.4141C64.6313 44.5817 64.6419 44.6924 64.6631 44.7461C64.6794 44.7868 64.7135 44.8218 64.7656 44.8511C64.8372 44.8901 64.9121 44.9097 64.9902 44.9097H65.1099V45H63.689V44.9097H63.8062C63.9429 44.9097 64.0422 44.8698 64.104 44.79C64.1431 44.738 64.1626 44.6126 64.1626 44.4141V42.2754C64.1626 42.1077 64.152 41.9971 64.1309 41.9434C64.1146 41.9027 64.0812 41.8677 64.0308 41.8384C63.9608 41.7993 63.8859 41.7798 63.8062 41.7798H63.689V41.6895H66.1523L66.1841 42.417H66.0986C66.0563 42.2624 66.0067 42.1493 65.9497 42.0776C65.8944 42.0044 65.8252 41.9515 65.7422 41.9189C65.6608 41.8864 65.5339 41.8701 65.3613 41.8701H64.6313Z" fill="black"/>
<path d="M64.6313 49.8701V51.1714H65.2344C65.3727 51.1714 65.4736 51.1413 65.5371 51.0811C65.6022 51.0192 65.6453 50.8979 65.6665 50.7173H65.7568V51.8379H65.6665C65.6649 51.7093 65.6478 51.6149 65.6152 51.5547C65.5843 51.4945 65.5404 51.4497 65.4834 51.4204C65.4281 51.3895 65.3451 51.374 65.2344 51.374H64.6313V52.4141C64.6313 52.5817 64.6419 52.6924 64.6631 52.7461C64.6794 52.7868 64.7135 52.8218 64.7656 52.8511C64.8372 52.8901 64.9121 52.9097 64.9902 52.9097H65.1099V53H63.689V52.9097H63.8062C63.9429 52.9097 64.0422 52.8698 64.104 52.79C64.1431 52.738 64.1626 52.6126 64.1626 52.4141V50.2754C64.1626 50.1077 64.152 49.9971 64.1309 49.9434C64.1146 49.9027 64.0812 49.8677 64.0308 49.8384C63.9608 49.7993 63.8859 49.7798 63.8062 49.7798H63.689V49.6895H66.1523L66.1841 50.417H66.0986C66.0563 50.2624 66.0067 50.1493 65.9497 50.0776C65.8944 50.0044 65.8252 49.9515 65.7422 49.9189C65.6608 49.8864 65.5339 49.8701 65.3613 49.8701H64.6313Z" fill="black"/>
<path d="M41.6313 33.8701V35.1714H42.2344C42.3727 35.1714 42.4736 35.1413 42.5371 35.0811C42.6022 35.0192 42.6453 34.8979 42.6665 34.7173H42.7568V35.8379H42.6665C42.6649 35.7093 42.6478 35.6149 42.6152 35.5547C42.5843 35.4945 42.5404 35.4497 42.4834 35.4204C42.4281 35.3895 42.3451 35.374 42.2344 35.374H41.6313V36.4141C41.6313 36.5817 41.6419 36.6924 41.6631 36.7461C41.6794 36.7868 41.7135 36.8218 41.7656 36.8511C41.8372 36.8901 41.9121 36.9097 41.9902 36.9097H42.1099V37H40.689V36.9097H40.8062C40.9429 36.9097 41.0422 36.8698 41.104 36.79C41.1431 36.738 41.1626 36.6126 41.1626 36.4141V34.2754C41.1626 34.1077 41.152 33.9971 41.1309 33.9434C41.1146 33.9027 41.0812 33.8677 41.0308 33.8384C40.9608 33.7993 40.8859 33.7798 40.8062 33.7798H40.689V33.6895H43.1523L43.1841 34.417H43.0986C43.0563 34.2624 43.0067 34.1493 42.9497 34.0776C42.8944 34.0044 42.8252 33.9515 42.7422 33.9189C42.6608 33.8864 42.5339 33.8701 42.3613 33.8701H41.6313Z" fill="black"/>
<path d="M43.3647 41.6895L43.4014 42.4658H43.3086C43.2907 42.3291 43.2663 42.2314 43.2354 42.1729C43.1849 42.0785 43.1174 42.0093 43.0327 41.9653C42.9497 41.9198 42.8398 41.897 42.7031 41.897H42.2368V44.4263C42.2368 44.6297 42.2588 44.7567 42.3027 44.8071C42.3646 44.8755 42.4598 44.9097 42.5884 44.9097H42.7031V45H41.2993V44.9097H41.4165C41.5565 44.9097 41.6558 44.8674 41.7144 44.7827C41.7502 44.7306 41.7681 44.6118 41.7681 44.4263V41.897H41.3701C41.2155 41.897 41.1056 41.9084 41.0405 41.9312C40.9559 41.9621 40.8835 42.0215 40.8232 42.1094C40.763 42.1973 40.7272 42.3161 40.7158 42.4658H40.623L40.6621 41.6895H43.3647Z" fill="black"/>
<path d="M41.6313 49.8701V51.1714H42.2344C42.3727 51.1714 42.4736 51.1413 42.5371 51.0811C42.6022 51.0192 42.6453 50.8979 42.6665 50.7173H42.7568V51.8379H42.6665C42.6649 51.7093 42.6478 51.6149 42.6152 51.5547C42.5843 51.4945 42.5404 51.4497 42.4834 51.4204C42.4281 51.3895 42.3451 51.374 42.2344 51.374H41.6313V52.4141C41.6313 52.5817 41.6419 52.6924 41.6631 52.7461C41.6794 52.7868 41.7135 52.8218 41.7656 52.8511C41.8372 52.8901 41.9121 52.9097 41.9902 52.9097H42.1099V53H40.689V52.9097H40.8062C40.9429 52.9097 41.0422 52.8698 41.104 52.79C41.1431 52.738 41.1626 52.6126 41.1626 52.4141V50.2754C41.1626 50.1077 41.152 49.9971 41.1309 49.9434C41.1146 49.9027 41.0812 49.8677 41.0308 49.8384C40.9608 49.7993 40.8859 49.7798 40.8062 49.7798H40.689V49.6895H43.1523L43.1841 50.417H43.0986C43.0563 50.2624 43.0067 50.1493 42.9497 50.0776C42.8944 50.0044 42.8252 49.9515 42.7422 49.9189C42.6608 49.8864 42.5339 49.8701 42.3613 49.8701H41.6313Z" fill="black"/>
<path d="M42.8862 17.6978V20.5737C42.8862 20.717 42.896 20.8089 42.9155 20.8496C42.9351 20.8903 42.9652 20.922 43.0059 20.9448C43.0482 20.9676 43.1296 20.979 43.25 20.979V21.0693H42.1221V20.979H42.1685C42.2596 20.979 42.3288 20.966 42.376 20.9399C42.4085 20.922 42.4346 20.8895 42.4541 20.8423C42.4736 20.7967 42.4834 20.7072 42.4834 20.5737V19.6118C42.3353 19.7876 42.2059 19.908 42.0952 19.9731C41.9845 20.0366 41.8698 20.0684 41.751 20.0684C41.5345 20.0684 41.3408 19.9699 41.1699 19.7729C41.0007 19.576 40.916 19.3123 40.916 18.9819C40.916 18.6027 41.0283 18.2943 41.2529 18.0566C41.4775 17.8174 41.7485 17.6978 42.0659 17.6978C42.1587 17.6978 42.2441 17.7108 42.3223 17.7368C42.4004 17.7629 42.4704 17.8019 42.5322 17.854C42.6266 17.8084 42.717 17.7563 42.8032 17.6978H42.8862ZM42.4834 19.458V18.4082C42.4834 18.2861 42.4671 18.1901 42.4346 18.1201C42.4036 18.0501 42.3475 17.9907 42.2661 17.9419C42.1847 17.8931 42.0928 17.8687 41.9902 17.8687C41.8079 17.8687 41.6517 17.946 41.5215 18.1006C41.3913 18.2552 41.3262 18.4896 41.3262 18.8037C41.3262 19.1048 41.3921 19.3335 41.5239 19.4897C41.6574 19.646 41.8177 19.7241 42.0049 19.7241C42.1009 19.7241 42.1864 19.7038 42.2612 19.6631C42.3361 19.6208 42.4102 19.5524 42.4834 19.458Z" fill="black"/>
<path d="M70.3862 17.6978V20.5737C70.3862 20.717 70.396 20.8089 70.4155 20.8496C70.4351 20.8903 70.4652 20.922 70.5059 20.9448C70.5482 20.9676 70.6296 20.979 70.75 20.979V21.0693H69.6221V20.979H69.6685C69.7596 20.979 69.8288 20.966 69.876 20.9399C69.9085 20.922 69.9346 20.8895 69.9541 20.8423C69.9736 20.7967 69.9834 20.7072 69.9834 20.5737V19.6118C69.8353 19.7876 69.7059 19.908 69.5952 19.9731C69.4845 20.0366 69.3698 20.0684 69.251 20.0684C69.0345 20.0684 68.8408 19.9699 68.6699 19.7729C68.5007 19.576 68.416 19.3123 68.416 18.9819C68.416 18.6027 68.5283 18.2943 68.7529 18.0566C68.9775 17.8174 69.2485 17.6978 69.5659 17.6978C69.6587 17.6978 69.7441 17.7108 69.8223 17.7368C69.9004 17.7629 69.9704 17.8019 70.0322 17.854C70.1266 17.8084 70.217 17.7563 70.3032 17.6978H70.3862ZM69.9834 19.458V18.4082C69.9834 18.2861 69.9671 18.1901 69.9346 18.1201C69.9036 18.0501 69.8475 17.9907 69.7661 17.9419C69.6847 17.8931 69.5928 17.8687 69.4902 17.8687C69.3079 17.8687 69.1517 17.946 69.0215 18.1006C68.8913 18.2552 68.8262 18.4896 68.8262 18.8037C68.8262 19.1048 68.8921 19.3335 69.0239 19.4897C69.1574 19.646 69.3177 19.7241 69.5049 19.7241C69.6009 19.7241 69.6864 19.7038 69.7612 19.6631C69.8361 19.6208 69.9102 19.5524 69.9834 19.458Z" fill="black"/>
<path d="M66 20L65 18L64 20" stroke="black" stroke-width="0.3"/>
<line x1="19" y1="14.5" x2="80" y2="14.5" stroke="black"/>
<line x1="19" y1="23.5" x2="80" y2="23.5" stroke="black"/>
<line x1="19" y1="31.5" x2="80" y2="31.5" stroke="black"/>
<line x1="19" y1="39.5" x2="80" y2="39.5" stroke="black"/>
<line x1="19" y1="47.5" x2="80" y2="47.5" stroke="black"/>
<line x1="19" y1="55.5" x2="80" y2="55.5" stroke="black"/>
</svg>
